<svg width="360" height="53" viewBox="0 0 360 53" fill="none" xmlns="http://www.w3.org/2000/svg">
<path d="M11.2109 9.3125C10.8008 7.35938 9.12109 6.30469 7.26562 6.30469C4.70703 6.30469 2.71484 8.27734 2.71484 11.9297C2.71484 15.582 4.70703 17.5547 7.26562 17.5547C9.12109 17.5547 10.7812 16.5 11.2109 14.5664H12.9688C12.4609 17.457 10.1367 19.1953 7.26562 19.1953C3.63281 19.1953 1.01562 16.4023 1.01562 11.9297C1.01562 7.45703 3.63281 4.66406 7.26562 4.66406C10.1172 4.66406 12.4414 6.38281 12.9688 9.3125H11.2109ZM19.7508 19.2148C16.8602 19.2148 14.907 17.0469 14.907 13.7461C14.907 10.4453 16.8602 8.25781 19.7508 8.25781C22.6219 8.25781 24.5555 10.4453 24.5555 13.7461C24.5555 17.0469 22.6219 19.2148 19.7508 19.2148ZM19.7508 17.7305C21.8797 17.7305 22.8758 15.8555 22.8758 13.7461C22.8758 11.6367 21.8797 9.74219 19.7508 9.74219C17.5828 9.74219 16.5867 11.6367 16.5867 13.7461C16.5867 15.8555 17.5828 17.7305 19.7508 17.7305ZM26.9625 22.9844V8.39453H28.5836V10.0742H28.7789C29.1305 9.50781 29.7945 8.25781 31.8453 8.25781C34.5016 8.25781 36.357 10.3672 36.357 13.7266C36.357 17.0859 34.5016 19.2148 31.8648 19.2148C29.8336 19.2148 29.1305 17.9648 28.7789 17.3789H28.6422V22.9844H26.9625ZM28.6031 13.6875C28.6031 16.0703 29.6773 17.7109 31.6305 17.7109C33.6422 17.7109 34.6773 15.9531 34.6773 13.6875C34.6773 11.4805 33.6617 9.76172 31.6305 9.76172C29.6383 9.76172 28.6031 11.3438 28.6031 13.6875ZM39.4281 22.9844C39.057 22.9844 38.7055 22.9648 38.4906 22.9453V21.4414C38.6664 21.4609 39.057 21.4805 39.3109 21.4805C39.9945 21.4805 40.5609 21.4219 41.1273 19.8789L41.4398 19.0781L37.5141 8.39453H39.35L42.2406 16.8125H42.3578L45.2484 8.39453H47.0844L42.5922 20.5234C41.9672 22.1836 40.932 22.9844 39.4281 22.9844ZM49.1398 19V8.39453H50.7609V10.0156H50.8781C51.2687 8.94141 52.3625 8.21875 53.6125 8.21875C53.8664 8.21875 54.2961 8.23828 54.4914 8.25781V9.95703C54.3742 9.91797 53.9055 9.83984 53.4758 9.83984C51.9523 9.83984 50.8195 10.8945 50.8195 12.3203V19H49.1398ZM56.332 19V8.39453H58.0117V19H56.332ZM57.1719 6.63672C56.5273 6.63672 56 6.14844 56 5.52344C56 4.89844 56.5273 4.41016 57.1719 4.41016C57.8164 4.41016 58.3633 4.89844 58.3633 5.52344C58.3633 6.14844 57.8164 6.63672 57.1719 6.63672ZM65.1844 23.1992C62.6258 23.1992 60.8875 22.0859 60.6922 20.1133H62.45C62.6844 21.1875 63.6805 21.7344 65.1844 21.7344C67.0008 21.7344 68.1141 20.9531 68.1141 19.1953V17.0469H67.9773C67.6258 17.6328 66.9422 18.8438 64.8914 18.8438C62.3133 18.8438 60.3797 16.8906 60.3797 13.5508C60.3797 10.2891 62.2547 8.25781 64.9109 8.25781C66.9617 8.25781 67.6258 9.50781 68.0164 10.0742H68.1531V8.39453H69.7938V19.293C69.7938 22.0273 67.7625 23.1992 65.1844 23.1992ZM65.1258 17.3398C67.0594 17.3398 68.1531 15.9531 68.1531 13.6094C68.1531 11.3438 67.0984 9.76172 65.1258 9.76172C63.0945 9.76172 62.0789 11.4805 62.0789 13.6094C62.0789 15.8164 63.1141 17.3398 65.1258 17.3398ZM74.3492 12.6328V19H72.6695V4.85938H74.3492V10.0547H74.4859C74.9742 8.96094 75.9313 8.25781 77.6109 8.25781C79.7789 8.25781 81.2242 9.54688 81.2242 12.2617V19H79.5445V12.3789C79.5445 10.7188 78.6266 9.76172 77.1031 9.76172C75.5211 9.76172 74.3492 10.7969 74.3492 12.6328ZM88.7484 8.39453V9.80078H86.5219V15.9531C86.5219 17.3203 87.1859 17.5352 87.9086 17.5352C88.2211 17.5352 88.6508 17.5156 88.9047 17.4961V19.0586C88.6508 19.0977 88.2211 19.1367 87.7328 19.1367C86.3266 19.1367 84.8227 18.2578 84.8227 16.3828V9.80078H83.2211V8.39453H84.8227V5.85547H86.5219V8.39453H88.7484ZM99.2656 11.9297C99.2656 9.66406 101.102 7.84766 103.367 7.84766C105.32 7.84766 106.961 9.21484 107.234 11.0508H105.535C105.34 10.1133 104.402 9.44922 103.367 9.44922C102 9.44922 100.887 10.5625 100.887 11.9297C100.887 13.2969 102 14.4102 103.367 14.4102C104.402 14.4102 105.203 13.7461 105.398 12.8086H107.078C106.824 14.6445 105.32 16.0117 103.367 16.0117C101.102 16.0117 99.2656 14.1953 99.2656 11.9297ZM103.289 19.2148C99.2852 19.2148 95.9844 15.9531 96.0039 11.9297C96.0039 7.88672 99.2852 4.64453 103.289 4.64453C107.332 4.64453 110.574 7.88672 110.574 11.9297C110.594 15.9531 107.332 19.2148 103.289 19.2148ZM103.289 17.5938C106.434 17.5938 108.973 15.0547 108.953 11.9297C108.934 8.78516 106.414 6.26562 103.289 6.26562C100.184 6.26562 97.6445 8.80469 97.625 11.9297C97.6055 15.0352 100.164 17.5938 103.289 17.5938ZM127.83 4.85938H129.588V14.2148C129.588 17.125 127.42 19.2539 124.08 19.2539C120.74 19.2539 118.572 17.125 118.572 14.2148V4.85938H120.33V14.0781C120.33 16.1289 121.755 17.6133 124.08 17.6133C126.423 17.6133 127.83 16.1289 127.83 14.0781V4.85938ZM143.943 4.85938V19H142.263L134.607 7.98438H134.47V19H132.712V4.85938H134.412L142.068 15.8945H142.205V4.85938H143.943ZM159.021 11.9297C159.021 16.4023 156.384 19.1953 152.771 19.1953C149.138 19.1953 146.521 16.4023 146.521 11.9297C146.521 7.45703 149.138 4.66406 152.771 4.66406C156.384 4.66406 159.021 7.45703 159.021 11.9297ZM157.322 11.9297C157.322 8.27734 155.33 6.30469 152.771 6.30469C150.212 6.30469 148.22 8.27734 148.22 11.9297C148.22 15.582 150.212 17.5547 152.771 17.5547C155.33 17.5547 157.322 15.582 157.322 11.9297ZM161.541 19H159.705L164.88 4.85938H166.736L171.912 19H170.056L168.65 15.0156H162.966L161.541 19ZM163.494 13.4727H168.103L165.857 7.14453H165.74L163.494 13.4727ZM174.802 19.1172C174.119 19.1172 173.533 18.5508 173.552 17.8477C173.533 17.1641 174.119 16.5977 174.802 16.5977C175.486 16.5977 176.052 17.1641 176.052 17.8477C176.052 18.5508 175.486 19.1172 174.802 19.1172ZM184.509 19H182.673L187.849 4.85938H189.705L194.88 19H193.025L191.619 15.0156H185.935L184.509 19ZM186.462 13.4727H191.072L188.826 7.14453H188.709L186.462 13.4727ZM198.259 4.85938V19H196.58V4.85938H198.259ZM202.615 4.85938V19H200.935V4.85938H202.615ZM210.525 19V4.85938H215.33C218.65 4.85938 220.154 6.69531 220.154 9.21484C220.154 11.0801 219.314 12.5547 217.517 13.1797L220.701 19H218.65L215.701 13.4922L215.349 13.5117H212.283V19H210.525ZM212.283 11.9102H215.271C217.517 11.9102 218.416 10.8945 218.416 9.21484C218.416 7.51562 217.517 6.42188 215.252 6.42188H212.283V11.9102ZM222.478 19V8.39453H224.158V19H222.478ZM223.318 6.63672C222.673 6.63672 222.146 6.14844 222.146 5.52344C222.146 4.89844 222.673 4.41016 223.318 4.41016C223.962 4.41016 224.509 4.89844 224.509 5.52344C224.509 6.14844 223.962 6.63672 223.318 6.63672ZM231.13 23.1992C228.572 23.1992 226.834 22.0859 226.638 20.1133H228.396C228.63 21.1875 229.627 21.7344 231.13 21.7344C232.947 21.7344 234.06 20.9531 234.06 19.1953V17.0469H233.923C233.572 17.6328 232.888 18.8438 230.837 18.8438C228.259 18.8438 226.326 16.8906 226.326 13.5508C226.326 10.2891 228.201 8.25781 230.857 8.25781C232.908 8.25781 233.572 9.50781 233.962 10.0742H234.099V8.39453H235.74V19.293C235.74 22.0273 233.709 23.1992 231.13 23.1992ZM231.072 17.3398C233.005 17.3398 234.099 15.9531 234.099 13.6094C234.099 11.3438 233.045 9.76172 231.072 9.76172C229.041 9.76172 228.025 11.4805 228.025 13.6094C228.025 15.8164 229.06 17.3398 231.072 17.3398ZM240.095 12.6328V19H238.416V4.85938H240.095V10.0547H240.232C240.72 8.96094 241.677 8.25781 243.357 8.25781C245.525 8.25781 246.97 9.54688 246.97 12.2617V19H245.291V12.3789C245.291 10.7188 244.373 9.76172 242.849 9.76172C241.267 9.76172 240.095 10.7969 240.095 12.6328ZM254.295 8.39453V9.80078H252.068V15.9531C252.068 17.3203 252.732 17.5352 253.455 17.5352C253.767 17.5352 254.197 17.5156 254.451 17.4961V19.0586C254.197 19.0977 253.767 19.1367 253.279 19.1367C251.873 19.1367 250.369 18.2578 250.369 16.3828V9.80078H248.767V8.39453H250.369V5.85547H252.068V8.39453H254.295ZM262.166 11.1484C261.931 10.2695 261.267 9.68359 260.017 9.68359C258.709 9.68359 257.771 10.3867 257.771 11.2852C257.771 11.9883 258.337 12.4766 259.587 12.7695L261.17 13.1602C263.064 13.6094 264.002 14.5469 264.002 16.0312C264.002 17.8672 262.498 19.2148 259.841 19.2148C257.459 19.2148 256.033 18.1602 255.759 16.2266H257.517C257.712 17.2617 258.474 17.75 259.802 17.75C261.306 17.75 262.263 17.125 262.263 16.1289C262.263 15.3867 261.736 14.8789 260.525 14.6055L258.923 14.2344C257.068 13.8047 256.091 12.7891 256.091 11.3828C256.091 9.56641 257.673 8.25781 260.017 8.25781C262.205 8.25781 263.591 9.42969 263.806 11.1484H262.166ZM271.423 19V4.85938H276.228C279.548 4.85938 281.052 6.69531 281.052 9.21484C281.052 11.0801 280.212 12.5547 278.416 13.1797L281.599 19H279.548L276.599 13.4922L276.248 13.5117H273.181V19H271.423ZM273.181 11.9102H276.17C278.416 11.9102 279.314 10.8945 279.314 9.21484C279.314 7.51562 278.416 6.42188 276.15 6.42188H273.181V11.9102ZM287.712 19.2148C284.646 19.2148 282.752 17.0469 282.752 13.7852C282.752 10.5234 284.666 8.25781 287.556 8.25781C289.783 8.25781 292.127 9.625 292.127 13.5508V14.2539H284.431C284.509 16.5 285.818 17.7305 287.712 17.7305C288.982 17.7305 289.783 17.1836 290.173 16.5195H291.97C291.462 18.1211 289.9 19.2148 287.712 19.2148ZM284.451 12.8281H290.427C290.427 11.0508 289.295 9.74219 287.556 9.74219C285.72 9.74219 284.548 11.1875 284.451 12.8281ZM300.212 11.1484C299.978 10.2695 299.314 9.68359 298.064 9.68359C296.755 9.68359 295.818 10.3867 295.818 11.2852C295.818 11.9883 296.384 12.4766 297.634 12.7695L299.216 13.1602C301.111 13.6094 302.048 14.5469 302.048 16.0312C302.048 17.8672 300.545 19.2148 297.888 19.2148C295.505 19.2148 294.08 18.1602 293.806 16.2266H295.564C295.759 17.2617 296.521 17.75 297.849 17.75C299.353 17.75 300.31 17.125 300.31 16.1289C300.31 15.3867 299.783 14.8789 298.572 14.6055L296.97 14.2344C295.115 13.8047 294.138 12.7891 294.138 11.3828C294.138 9.56641 295.72 8.25781 298.064 8.25781C300.252 8.25781 301.638 9.42969 301.853 11.1484H300.212ZM308.689 19.2148C305.623 19.2148 303.728 17.0469 303.728 13.7852C303.728 10.5234 305.642 8.25781 308.533 8.25781C310.759 8.25781 313.103 9.625 313.103 13.5508V14.2539H305.408C305.486 16.5 306.795 17.7305 308.689 17.7305C309.959 17.7305 310.759 17.1836 311.15 16.5195H312.947C312.439 18.1211 310.877 19.2148 308.689 19.2148ZM305.427 12.8281H311.404C311.404 11.0508 310.271 9.74219 308.533 9.74219C306.697 9.74219 305.525 11.1875 305.427 12.8281ZM315.291 19V8.39453H316.912V10.0156H317.029C317.42 8.94141 318.513 8.21875 319.763 8.21875C320.017 8.21875 320.447 8.23828 320.642 8.25781V9.95703C320.525 9.91797 320.056 9.83984 319.627 9.83984C318.103 9.83984 316.97 10.8945 316.97 12.3203V19H315.291ZM331.345 8.39453L327.42 19H325.681L321.775 8.39453H323.611L326.502 16.8125H326.619L329.509 8.39453H331.345ZM337.263 19.2148C334.197 19.2148 332.302 17.0469 332.302 13.7852C332.302 10.5234 334.216 8.25781 337.107 8.25781C339.334 8.25781 341.677 9.625 341.677 13.5508V14.2539H333.982C334.06 16.5 335.369 17.7305 337.263 17.7305C338.533 17.7305 339.334 17.1836 339.724 16.5195H341.521C341.013 18.1211 339.451 19.2148 337.263 19.2148ZM334.002 12.8281H339.978C339.978 11.0508 338.845 9.74219 337.107 9.74219C335.271 9.74219 334.099 11.1875 334.002 12.8281ZM347.869 19.2148C345.232 19.2148 343.357 17.0859 343.357 13.7266C343.357 10.3672 345.232 8.25781 347.888 8.25781C349.939 8.25781 350.603 9.50781 350.955 10.0742H351.072V4.85938H352.771V19H351.13V17.3789H350.955C350.584 17.9648 349.9 19.2148 347.869 19.2148ZM348.103 17.7109C350.037 17.7109 351.13 16.0703 351.13 13.6875C351.13 11.3438 350.076 9.76172 348.103 9.76172C346.072 9.76172 345.056 11.4805 345.056 13.6875C345.056 15.9531 346.091 17.7109 348.103 17.7109ZM356.873 19.1172C356.189 19.1172 355.603 18.5508 355.623 17.8477C355.603 17.1641 356.189 16.5977 356.873 16.5977C357.556 16.5977 358.123 17.1641 358.123 17.8477C358.123 18.5508 357.556 19.1172 356.873 19.1172Z" fill="black" fill-opacity="0.68"/>
<path d="M68.9043 38.7461C68.9043 41.8223 66.6484 43.9961 63.0664 44.9531L62.6289 44.1055C65.6367 43.3125 67.5303 41.7061 67.7695 39.6211H63.2715V38.7461H68.9043ZM72.5273 37.9668V44.8301H71.4609V37.9668H72.5273ZM72.5273 45.418V49.9434H64.625V45.418H72.5273ZM65.6777 46.2793V49.0684H71.4746V46.2793H65.6777ZM84.668 37.9668V47.2363H83.5879V44.625H81.4824V43.75H83.5879V42.0957H81.4824V41.207H83.5879V37.9668H84.668ZM81.4824 39.457V40.332H74.6055V39.457H77.5586V37.9531H78.625V39.457H81.4824ZM78.0781 41.002C79.7051 41.002 80.8535 41.9316 80.8535 43.3262C80.8535 44.707 79.7051 45.6504 78.0781 45.6504C76.4512 45.6504 75.3164 44.707 75.3301 43.3262C75.3164 41.9316 76.4512 41.002 78.0781 41.002ZM78.0781 41.8496C77.0391 41.8633 76.3281 42.4512 76.3281 43.3262C76.3281 44.2012 77.0391 44.7891 78.0781 44.7891C79.1172 44.7891 79.8281 44.2012 79.8418 43.3262C79.8281 42.4512 79.1172 41.8633 78.0781 41.8496ZM84.9414 48.9453V49.8477H76.8066V46.416H77.8867V48.9453H84.9414ZM97.8066 44.9258V45.8281H92.7344V50.1074H91.6816V45.8281H86.6777V44.9258H97.8066ZM92.2148 38.4453C94.7715 38.4453 96.4941 39.4707 96.4941 41.125C96.4941 42.7383 94.7715 43.7637 92.2148 43.7637C89.6582 43.7637 87.9355 42.7383 87.9355 41.125C87.9355 39.4707 89.6582 38.4453 92.2148 38.4453ZM92.2148 39.3203C90.3145 39.3203 89.0293 40.0312 89.043 41.125C89.0293 42.2051 90.3145 42.9023 92.2148 42.9023C94.1016 42.9023 95.4004 42.2051 95.4004 41.125C95.4004 40.0312 94.1016 39.3203 92.2148 39.3203ZM99.8301 49H98.5449L102.168 39.1016H103.467L107.09 49H105.791L104.807 46.2109H100.828L99.8301 49ZM101.197 45.1309H104.424L102.852 40.7012H102.77L101.197 45.1309ZM113.502 37.707V50.3945H112.49V37.707H113.502ZM125.191 42.2051V43.9961H130.209V44.8711H119.135V43.9961H124.139V42.2051H125.191ZM125.205 38.7188C125.205 40.332 127.393 41.6855 129.539 41.9863L129.102 42.8477C127.256 42.5264 125.431 41.5488 124.672 40.1406C123.906 41.5557 122.074 42.5264 120.215 42.8477L119.805 41.9863C121.951 41.6855 124.125 40.332 124.125 38.7188V38.1445H125.205V38.7188ZM124.672 45.8828C127.283 45.8828 128.842 46.6348 128.855 47.9883C128.842 49.3418 127.283 50.0801 124.672 50.0801C122.033 50.0801 120.475 49.3418 120.475 47.9883C120.475 46.6348 122.033 45.8828 124.672 45.8828ZM124.672 46.7305C122.703 46.7305 121.555 47.1816 121.568 47.9883C121.555 48.7812 122.703 49.2461 124.672 49.2461C126.613 49.2461 127.775 48.7812 127.775 47.9883C127.775 47.1816 126.613 46.7305 124.672 46.7305ZM142.309 44.3652V45.2402H131.234V44.3652H142.309ZM141.078 48.9453V49.8477H132.67V46.3066H133.75V48.9453H141.078ZM136.771 38.3906C139.383 38.377 141.064 39.2793 141.064 40.7969C141.064 42.3145 139.383 43.2168 136.771 43.2168C134.133 43.2168 132.465 42.3145 132.465 40.7969C132.465 39.2793 134.133 38.377 136.771 38.3906ZM136.771 39.252C134.816 39.252 133.559 39.8398 133.572 40.7969C133.559 41.7539 134.816 42.3418 136.771 42.3418C138.713 42.3418 139.971 41.7539 139.971 40.7969C139.971 39.8398 138.713 39.252 136.771 39.252ZM153.779 37.9531V50.1074H152.74V43.791H151.086V49.4922H150.061V38.2129H151.086V42.875H152.74V37.9531H153.779ZM146.93 41.2754C146.93 43.5039 147.846 45.459 149.582 46.3477L148.939 47.1816C147.709 46.5117 146.868 45.3086 146.438 43.8184C146.021 45.5137 145.166 46.8398 143.881 47.5918L143.211 46.7715C144.961 45.8145 145.891 43.7363 145.891 41.2754V40.3047H143.498V39.4023H149.186V40.3047H146.93V41.2754ZM161.107 37.707V50.3945H160.096V37.707H161.107ZM176.775 37.9668V44.8711H175.709V37.9668H176.775ZM176.775 45.5684V49.9434H168.873V45.5684H176.775ZM169.926 46.4434V49.0684H175.723V46.4434H169.926ZM171.047 39.6348C171.033 41.3574 172.346 42.875 174.137 43.5039L173.59 44.3242C172.182 43.8389 171.061 42.8135 170.514 41.4805C169.974 42.9023 168.839 44.0234 167.383 44.5566L166.836 43.709C168.682 43.0664 169.953 41.4258 169.953 39.6348V38.4453H171.047V39.6348ZM182.189 38.6914C183.215 38.6846 184.09 39.0674 184.65 39.7168H187.836V37.9531H188.916V45.1582H187.836V43.4219H184.664C184.09 44.0713 183.215 44.4541 182.189 44.4473C180.371 44.4609 179.031 43.2715 179.031 41.5762C179.031 39.8672 180.371 38.6777 182.189 38.6914ZM182.189 39.6211C180.945 39.6074 180.057 40.4277 180.057 41.5762C180.057 42.7109 180.945 43.5312 182.189 43.5312C183.393 43.5312 184.295 42.7109 184.295 41.5762C184.295 40.4277 183.393 39.6074 182.189 39.6211ZM184.883 45.4453C187.398 45.4453 188.957 46.293 188.957 47.7559C188.957 49.2324 187.398 50.0801 184.883 50.0801C182.354 50.0801 180.809 49.2324 180.809 47.7559C180.809 46.293 182.354 45.4453 184.883 45.4453ZM184.883 46.2793C183.023 46.2793 181.861 46.8398 181.861 47.7559C181.861 48.6719 183.023 49.2188 184.883 49.2188C186.756 49.2188 187.904 48.6719 187.904 47.7559C187.904 46.8398 186.756 46.2793 184.883 46.2793ZM185.17 40.5918C185.272 40.8926 185.334 41.2207 185.334 41.5762C185.334 41.918 185.272 42.2393 185.17 42.5332H187.836V40.5918H185.17ZM197.283 39.0195V44.6523H191.582V39.0195H197.283ZM192.635 39.9082V43.791H196.23V39.9082H192.635ZM200.975 37.9668V46.7031H199.908V37.9668H200.975ZM201.357 48.8086V49.6973H193.127V45.8555H194.193V48.8086H201.357ZM208.713 37.707V50.3945H207.701V37.707H208.713ZM219.883 46.375C222.549 46.375 224.053 47.0176 224.066 48.248C224.053 49.4512 222.549 50.0801 219.883 50.0801C217.189 50.0801 215.686 49.4512 215.686 48.248C215.686 47.0176 217.189 46.375 219.883 46.375ZM219.883 47.1816C217.9 47.1816 216.779 47.5645 216.779 48.248C216.779 48.918 217.9 49.2871 219.883 49.2734C221.852 49.2871 222.973 48.918 222.973 48.248C222.973 47.5645 221.852 47.1816 219.883 47.1816ZM224.777 38.9785V39.8398H214.92V38.9785H219.35V37.7891H220.416V38.9785H224.777ZM219.883 40.332C222.398 40.332 223.82 40.9336 223.82 42.082C223.82 43.1211 222.597 43.7158 220.416 43.791V44.748H225.42V45.6094H214.346V44.748H219.35V43.791C217.162 43.7158 215.932 43.1211 215.932 42.082C215.932 40.9336 217.367 40.332 219.883 40.332ZM219.883 41.0977C218.092 41.0977 217.066 41.4395 217.08 42.082C217.066 42.6836 218.092 43.0391 219.883 43.0391C221.66 43.0391 222.686 42.6836 222.686 42.082C222.686 41.4395 221.66 41.0977 219.883 41.0977ZM230.629 39.8672C230.615 41.6035 231.846 43.1348 233.637 43.7363L233.035 44.5703C231.695 44.0645 230.643 43.0801 230.123 41.7949C229.597 43.251 228.482 44.3857 227.02 44.9395L226.432 44.0645C228.305 43.4082 229.549 41.7949 229.562 39.9082V38.6504H230.629V39.8672ZM236.521 37.9531V45.1582H235.441V41.4531H232.734V40.5645H235.441V37.9531H236.521ZM232.488 45.5137C235.018 45.5137 236.562 46.3477 236.562 47.8105C236.562 49.2598 235.018 50.0801 232.488 50.0801C229.959 50.0801 228.414 49.2598 228.414 47.8105C228.414 46.3477 229.959 45.5137 232.488 45.5137ZM232.488 46.3613C230.629 46.3613 229.467 46.9082 229.48 47.8105C229.467 48.6855 230.629 49.2188 232.488 49.2188C234.348 49.2188 235.496 48.6855 235.496 47.8105C235.496 46.9082 234.348 46.3613 232.488 46.3613ZM248.621 37.9668V47.2363H247.541V44.625H245.436V43.75H247.541V42.0957H245.436V41.207H247.541V37.9668H248.621ZM245.436 39.457V40.332H238.559V39.457H241.512V37.9531H242.578V39.457H245.436ZM242.031 41.002C243.658 41.002 244.807 41.9316 244.807 43.3262C244.807 44.707 243.658 45.6504 242.031 45.6504C240.404 45.6504 239.27 44.707 239.283 43.3262C239.27 41.9316 240.404 41.002 242.031 41.002ZM242.031 41.8496C240.992 41.8633 240.281 42.4512 240.281 43.3262C240.281 44.2012 240.992 44.7891 242.031 44.7891C243.07 44.7891 243.781 44.2012 243.795 43.3262C243.781 42.4512 243.07 41.8633 242.031 41.8496ZM248.895 48.9453V49.8477H240.76V46.416H241.84V48.9453H248.895ZM256.318 37.707V50.3945H255.307V37.707H256.318ZM271.439 37.9668V41.6309H273.258V42.5332H271.439V46.2109H270.359V37.9668H271.439ZM267.516 46.3613C270.045 46.3477 271.508 47.0176 271.521 48.2344C271.508 49.4512 270.045 50.0938 267.516 50.1074C264.973 50.0938 263.523 49.4512 263.523 48.2344C263.523 47.0176 264.973 46.3477 267.516 46.3613ZM267.516 47.168C265.643 47.1543 264.59 47.5508 264.604 48.2344C264.59 48.8906 265.643 49.2871 267.516 49.2871C269.375 49.2871 270.428 48.8906 270.428 48.2344C270.428 47.5508 269.375 47.1543 267.516 47.168ZM261.896 44.7891C262.874 44.7891 264.009 44.7822 265.191 44.748V43.7773C263.77 43.6611 262.867 43.0254 262.867 42.0684C262.867 40.9883 263.988 40.3457 265.711 40.3457C267.447 40.3457 268.555 40.9883 268.568 42.0684C268.555 43.0186 267.68 43.6543 266.258 43.7773V44.6934C267.399 44.6455 268.548 44.5566 269.607 44.4062L269.703 45.1582C267.092 45.6094 264.18 45.6504 262.02 45.6504L261.896 44.7891ZM269.238 39.0059V39.8398H262.197V39.0059H265.191V37.8574H266.258V39.0059H269.238ZM265.711 41.0977C264.59 41.0977 263.893 41.4805 263.893 42.0684C263.893 42.6836 264.59 43.0527 265.711 43.0527C266.832 43.0527 267.543 42.6836 267.543 42.0684C267.543 41.4805 266.832 41.0977 265.711 41.0977ZM280.189 39.6758C280.176 41.3027 282.35 42.6836 284.469 42.998L284.072 43.8457C282.172 43.5244 280.326 42.5127 279.588 41.043C278.85 42.5127 276.997 43.5244 275.131 43.8457L274.707 42.998C276.812 42.6836 278.986 41.3027 278.986 39.6758V39.5938H275.09V38.7188H284.072V39.5938H280.189V39.6758ZM285.125 44.8848V45.7734H280.094V50.1074H279.041V45.7734H274.051V44.8848H285.125ZM296.227 37.9668V45.2676H295.146V43.627H291.92V42.7383H295.146V41.0977H292.043C291.243 43.0527 289.363 44.4678 286.766 45.2402L286.314 44.3926C289.254 43.5176 291.079 41.877 291.305 39.7715H286.93V38.8691H292.467C292.467 39.3477 292.412 39.8057 292.316 40.2363H295.146V37.9668H296.227ZM292.248 45.3906C294.709 45.3906 296.295 46.2656 296.295 47.7148C296.295 49.1777 294.709 50.0527 292.248 50.0527C289.76 50.0527 288.188 49.1777 288.188 47.7148C288.188 46.2656 289.76 45.3906 292.248 45.3906ZM292.248 46.252C290.416 46.2383 289.24 46.7988 289.24 47.7148C289.24 48.6309 290.416 49.1777 292.248 49.1777C294.053 49.1777 295.215 48.6309 295.229 47.7148C295.215 46.7988 294.053 46.2383 292.248 46.252Z" fill="black" fill-opacity="0.68"/>
</svg>
