<svg width="42" height="41" viewBox="0 0 42 41" fill="none" xmlns="http://www.w3.org/2000/svg">
<rect x="0.0419922" width="41" height="41" rx="10" fill="black"/>
<path fill-rule="evenodd" clip-rule="evenodd" d="M14.8485 2.13452C13.3673 2.13343 11.9242 2.60385 10.7283 3.47766C9.53236 4.35147 8.64562 5.5833 8.19652 6.99473C7.74742 8.40616 7.75928 9.9239 8.23038 11.3281C8.70147 12.7324 9.60734 13.9502 10.8168 14.8052C9.90639 15.4496 9.16391 16.303 8.65172 17.2937C8.13954 18.2845 7.8726 19.3838 7.87333 20.4991C7.87333 22.8498 9.03671 24.9305 10.8202 26.193C9.84317 26.8846 9.06056 27.816 8.54768 28.8976C8.03481 29.9792 7.80892 31.1747 7.89177 32.3688C7.97461 33.563 8.36339 34.7158 9.02071 35.7162C9.67802 36.7167 10.5817 37.5311 11.6449 38.0812C12.7081 38.6313 13.895 38.8985 15.0913 38.8571C16.2876 38.8157 17.4532 38.4671 18.4758 37.8449C19.4985 37.2227 20.3437 36.3477 20.9304 35.3043C21.517 34.2608 21.8252 33.0839 21.8253 31.8869V25.9009C22.5509 26.4888 23.3873 26.9249 24.2847 27.1835C25.1821 27.4421 26.1223 27.5179 27.0495 27.4063C27.9767 27.2947 28.8721 26.9981 29.6825 26.5339C30.4929 26.0698 31.2019 25.4477 31.7673 24.7044C32.3328 23.9611 32.7432 23.1119 32.9743 22.207C33.2054 21.3021 33.2524 20.3601 33.1126 19.4367C32.9727 18.5133 32.6489 17.6274 32.1602 16.8315C31.6716 16.0357 31.0281 15.346 30.2679 14.8035C31.4773 13.9485 32.3832 12.7307 32.8543 11.3264C33.3254 9.9222 33.3372 8.40445 32.8881 6.99302C32.439 5.58159 31.5523 4.34976 30.3564 3.47595C29.1604 2.60214 27.7174 2.13172 26.2362 2.13281L14.8485 2.13452ZM19.2611 24.9117H14.8485C14.269 24.9117 13.6952 24.7976 13.1598 24.5758C12.6245 24.3541 12.138 24.0291 11.7283 23.6193C11.3185 23.2096 10.9935 22.7231 10.7717 22.1877C10.55 21.6524 10.4358 21.0786 10.4358 20.4991C10.4358 19.9196 10.55 19.3458 10.7717 18.8105C10.9935 18.2751 11.3185 17.7887 11.7283 17.3789C12.138 16.9692 12.6245 16.6441 13.1598 16.4224C13.6952 16.2006 14.269 16.0865 14.8485 16.0865H19.2611V24.9117ZM14.8485 13.524H19.2611V4.69702H14.8485C13.6779 4.69702 12.5553 5.16201 11.7277 5.9897C10.9 6.81739 10.435 7.93997 10.435 9.1105C10.435 10.281 10.9 11.4036 11.7277 12.2313C12.5553 13.059 13.6779 13.524 14.8485 13.524ZM30.6505 9.10965C30.651 10.2794 30.187 11.4014 29.3605 12.2291C28.5341 13.0569 27.4128 13.5226 26.243 13.524H21.8236V4.69702H26.2379C26.8174 4.69702 27.3912 4.81116 27.9266 5.03291C28.4619 5.25467 28.9484 5.5797 29.3581 5.98945C29.7679 6.3992 30.0929 6.88564 30.3146 7.42101C30.5364 7.95637 30.6505 8.53017 30.6505 9.10965ZM21.8236 20.494C21.8249 19.3255 22.2897 18.2052 23.116 17.3789C23.9423 16.5526 25.0626 16.0878 26.2311 16.0865H26.2413C27.1136 16.0875 27.9661 16.347 28.6909 16.8323C29.4158 17.3175 29.9806 18.0067 30.3139 18.8128C30.6473 19.6189 30.7342 20.5057 30.5638 21.3612C30.3934 22.2167 29.9732 23.0025 29.3564 23.6193C28.7396 24.2361 27.9538 24.6563 27.0983 24.8267C26.2428 24.9971 25.356 24.9102 24.5499 24.5768C23.7438 24.2435 23.0546 23.6787 22.5694 22.9538C22.0841 22.229 21.8246 21.3765 21.8236 20.5042V20.494ZM14.8485 27.4742C13.9758 27.4742 13.1227 27.733 12.3971 28.2178C11.6715 28.7026 11.1059 29.3916 10.7719 30.1978C10.4379 31.004 10.3504 31.8912 10.5205 32.7471C10.6906 33.603 11.1107 34.3893 11.7277 35.0065C12.3446 35.6236 13.1307 36.044 13.9866 36.2145C14.8424 36.3849 15.7296 36.2978 16.5359 35.9641C17.3422 35.6304 18.0315 35.065 18.5166 34.3396C19.0017 33.6142 19.2607 32.7612 19.2611 31.8886V27.4742H14.8485Z" fill="white"/>
</svg>
