<svg width="41" height="41" viewBox="0 0 41 41" fill="none" xmlns="http://www.w3.org/2000/svg">
<rect width="41" height="41" rx="10" fill="black"/>
<path d="M20.4998 3.83789C16.4432 3.8378 12.519 5.28123 9.42937 7.90988C6.33974 10.5385 4.28633 14.1809 3.6366 18.185C2.98687 22.1892 3.78323 26.2939 5.88317 29.7647C7.9831 33.2354 11.2496 35.8456 15.098 37.1282C15.9522 37.2785 16.2716 36.766 16.2716 36.3167C16.2716 35.9118 16.2511 34.5657 16.2511 33.1358C11.9581 33.9251 10.8477 32.0886 10.506 31.1285C10.1268 30.1938 9.52581 29.3653 8.75498 28.7146C8.15706 28.3952 7.30289 27.6042 8.73277 27.5837C9.27927 27.6427 9.80348 27.8327 10.2609 28.1375C10.7183 28.4424 11.0954 28.8531 11.3602 29.3348C11.5938 29.7545 11.9079 30.1239 12.2845 30.422C12.6611 30.7201 13.0929 30.941 13.555 31.0719C14.0172 31.2028 14.5006 31.2413 14.9776 31.185C15.4546 31.1288 15.9158 30.979 16.3349 30.7441C16.4082 29.8751 16.7957 29.0625 17.4248 28.4584C13.6237 28.0313 9.65185 26.5587 9.65185 20.0243C9.62904 18.3265 10.2554 16.684 11.4029 15.4324C10.8817 13.9566 10.9428 12.3376 11.5737 10.9053C11.5737 10.9053 13.0036 10.4577 16.2716 12.6563C19.067 11.8877 22.018 11.8877 24.8133 12.6563C28.0796 10.4355 29.5112 10.9053 29.5112 10.9053C30.1421 12.3376 30.2032 13.9566 29.6821 15.4324C30.8341 16.6812 31.4612 18.3255 31.4331 20.0243C31.4331 26.5792 27.439 28.0313 23.6397 28.4584C24.0469 28.8719 24.3605 29.3681 24.5591 29.9134C24.7578 30.4587 24.8369 31.0403 24.7911 31.6188C24.7911 33.9046 24.7706 35.741 24.7706 36.3167C24.7706 36.766 25.0901 37.299 25.9442 37.1282C29.7856 35.8349 33.0423 33.2185 35.1331 29.7461C37.2238 26.2736 38.0125 22.1712 37.3583 18.1711C36.7041 14.171 34.6496 10.5336 31.5616 7.90813C28.4736 5.28268 24.553 3.84009 20.4998 3.83789Z" fill="white"/>
</svg>
