<svg width="153" height="53" viewBox="0 0 153 53" fill="none" xmlns="http://www.w3.org/2000/svg">
<path d="M23.0001 11.936C23.2934 11.4667 23.7187 11.144 24.2761 10.968C24.8334 10.792 25.5227 10.704 26.3441 10.704C27.1947 10.704 27.8694 10.7773 28.3681 10.924C28.8667 11.0707 29.2481 11.2467 29.5121 11.452C29.7761 11.6573 29.9667 11.9653 30.0841 12.376C30.2601 12.8747 30.3481 13.6373 30.3481 14.664V27.952C30.3481 31.824 29.1454 35.344 26.7401 38.512C25.5667 40.008 24.0561 41.2253 22.2081 42.164C20.3601 43.0733 18.3067 43.528 16.0481 43.528C13.8187 43.528 11.7801 43.0587 9.93206 42.12C8.1134 41.1813 6.63206 39.9493 5.48806 38.424C3.11206 35.3147 1.92406 31.7947 1.92406 27.864V14.62C1.92406 13.916 1.93873 13.4027 1.96806 13.08C2.02673 12.728 2.1734 12.332 2.40806 11.892C2.64273 11.452 3.03873 11.144 3.59606 10.968C4.1534 10.792 4.9014 10.704 5.84006 10.704C6.77873 10.704 7.52673 10.792 8.08406 10.968C8.6414 11.144 9.02273 11.452 9.22806 11.892C9.58006 12.5667 9.75606 13.4907 9.75606 14.664V27.864C9.75606 29.6533 10.1961 31.3547 11.0761 32.968C11.5161 33.7893 12.1761 34.4493 13.0561 34.948C13.9361 35.4467 14.9774 35.696 16.1801 35.696C18.3214 35.696 19.9201 34.904 20.9761 33.32C22.0321 31.736 22.5601 29.9027 22.5601 27.82V14.356C22.5601 13.212 22.7067 12.4053 23.0001 11.936Z" fill="#E6007E"/>
<path d="M77.6697 12.112C77.963 11.584 78.3883 11.232 78.9457 11.056C79.503 10.88 80.1923 10.792 81.0137 10.792C81.8643 10.792 82.539 10.8653 83.0377 11.012C83.5657 11.1587 83.947 11.3347 84.1817 11.54C84.4457 11.7453 84.6363 12.0533 84.7537 12.464C84.9297 12.9333 85.0177 13.6813 85.0177 14.708V39.128C85.0177 39.832 84.9883 40.3453 84.9297 40.668C84.9003 40.9907 84.7683 41.372 84.5337 41.812C84.123 42.604 82.979 43 81.1017 43C79.9577 43 79.1657 42.912 78.7257 42.736C78.2857 42.56 77.919 42.2813 77.6257 41.9C71.0257 33.1 66.6843 27.3507 64.6017 24.652V39.128C64.6017 39.832 64.5723 40.3453 64.5137 40.668C64.4843 40.9907 64.3523 41.372 64.1177 41.812C63.707 42.604 62.563 43 60.6857 43C58.867 43 57.7523 42.604 57.3417 41.812C57.107 41.372 56.9603 40.976 56.9017 40.624C56.8723 40.272 56.8577 39.7587 56.8577 39.084V14.532C56.8577 13.4173 56.9897 12.6107 57.2537 12.112C57.547 11.584 57.9723 11.232 58.5297 11.056C59.087 10.88 59.8057 10.792 60.6857 10.792C61.5657 10.792 62.255 10.88 62.7537 11.056C63.2817 11.2027 63.6483 11.3787 63.8537 11.584C63.971 11.672 64.3083 12.0533 64.8657 12.728C71.055 21.1467 75.191 26.7053 77.2737 29.404V14.532C77.2737 13.4173 77.4057 12.6107 77.6697 12.112ZM103.912 10.352C108.253 10.352 112.022 11.9213 115.22 15.06C118.417 18.1987 120.016 22.1 120.016 26.764C120.016 31.3987 118.49 35.3587 115.44 38.644C112.389 41.9 108.634 43.528 104.176 43.528C99.717 43.528 95.9183 41.9147 92.7796 38.688C89.6703 35.4613 88.1156 31.6187 88.1156 27.16C88.1156 24.7253 88.5556 22.452 89.4356 20.34C90.3156 18.1987 91.489 16.4093 92.9556 14.972C94.4223 13.5347 96.109 12.4053 98.0156 11.584C99.9223 10.7627 101.888 10.352 103.912 10.352ZM95.9036 26.94C95.9036 29.5507 96.7396 31.6773 98.4116 33.32C100.113 34.9333 102.005 35.74 104.088 35.74C106.17 35.74 108.048 34.948 109.72 33.364C111.392 31.78 112.228 29.6533 112.228 26.984C112.228 24.3147 111.377 22.1733 109.676 20.56C108.004 18.9467 106.126 18.14 104.044 18.14C101.961 18.14 100.084 18.9613 98.4116 20.604C96.7396 22.2173 95.9036 24.3293 95.9036 26.94ZM139.563 13.036L151.443 37.588C151.942 38.5853 152.191 39.3333 152.191 39.832C152.191 40.888 151.341 41.8413 149.639 42.692C148.642 43.1907 147.85 43.44 147.263 43.44C146.706 43.44 146.237 43.308 145.855 43.044C145.503 42.78 145.239 42.5013 145.063 42.208C144.917 41.9147 144.697 41.4747 144.403 40.888L142.115 36.136H129.927L127.639 40.888C127.346 41.4747 127.111 41.9 126.935 42.164C126.789 42.428 126.525 42.7067 126.143 43C125.791 43.264 125.322 43.396 124.735 43.396C124.178 43.396 123.401 43.1467 122.403 42.648C120.702 41.8267 119.851 40.888 119.851 39.832C119.851 39.3333 120.101 38.5853 120.599 37.588L132.479 12.992C132.802 12.3173 133.286 11.7747 133.931 11.364C134.606 10.9533 135.31 10.748 136.043 10.748C137.627 10.748 138.801 11.5107 139.563 13.036ZM135.999 23.596L133.095 29.624H138.947L135.999 23.596Z" fill="#543ED9"/>
<rect x="40" y="4" width="6" height="20" rx="3" fill="#E6007E"/>
<rect x="33" y="17" width="6" height="20" rx="3" transform="rotate(-90 33 17)" fill="#E6007E"/>
</svg>
