<svg width="39" height="39" viewBox="0 0 39 39" fill="none" xmlns="http://www.w3.org/2000/svg">
<path d="M21.1919 22.9622V25.9713C21.1919 26.9046 21.9485 27.6611 22.8817 27.6611H25.8908C26.8241 27.6611 27.5806 26.9046 27.5806 25.9713V22.9622C27.5806 22.029 26.8241 21.2724 25.8908 21.2724H22.8817C21.9485 21.2724 21.1919 22.029 21.1919 22.9622Z" stroke="#1E90FF" stroke-width="1.5" stroke-linecap="round" stroke-linejoin="round"/>
<path d="M21.1919 13.6253V16.6344C21.1919 17.5676 21.9485 18.3242 22.8817 18.3242H25.8908C26.8241 18.3242 27.5806 17.5676 27.5806 16.6344V13.6253C27.5806 12.692 26.8241 11.9355 25.8908 11.9355H22.8817C21.9485 11.9355 21.1919 12.692 21.1919 13.6253Z" stroke="#FF5ACD" stroke-width="1.5" stroke-linecap="round" stroke-linejoin="round"/>
<path d="M11.8555 22.9622V25.9713C11.8555 26.9046 12.612 27.6611 13.5453 27.6611H16.5544C17.4876 27.6611 18.2442 26.9046 18.2442 25.9713V22.9622C18.2442 22.029 17.4876 21.2724 16.5544 21.2724H13.5453C12.612 21.2724 11.8555 22.029 11.8555 22.9622Z" stroke="#7B61FF" stroke-width="1.5" stroke-linecap="round" stroke-linejoin="round"/>
<path d="M11.8555 13.6263V16.6354C11.8555 17.5686 12.612 18.3252 13.5453 18.3252H16.5544C17.4876 18.3252 18.2442 17.5686 18.2442 16.6354V13.6263C18.2442 12.693 17.4876 11.9365 16.5544 11.9365H13.5453C12.612 11.9365 11.8555 12.693 11.8555 13.6263Z" stroke="#00C9A7" stroke-width="1.5" stroke-linecap="round" stroke-linejoin="round"/>
</svg>
