<svg width="39" height="39" viewBox="0 0 39 39" fill="none" xmlns="http://www.w3.org/2000/svg">
<path d="M21.1914 22.9632V25.9723C21.1914 26.9055 21.948 27.6621 22.8813 27.6621H25.8903C26.8236 27.6621 27.5801 26.9055 27.5801 25.9723V22.9632C27.5801 22.0299 26.8236 21.2734 25.8903 21.2734H22.8813C21.948 21.2734 21.1914 22.0299 21.1914 22.9632Z" stroke="#543ED9" stroke-width="1.5" stroke-linecap="round" stroke-linejoin="round"/>
<path d="M21.1914 13.6253V16.6344C21.1914 17.5676 21.948 18.3242 22.8813 18.3242H25.8903C26.8236 18.3242 27.5801 17.5676 27.5801 16.6344V13.6253C27.5801 12.692 26.8236 11.9355 25.8903 11.9355H22.8813C21.948 11.9355 21.1914 12.692 21.1914 13.6253Z" stroke="#543ED9" stroke-width="1.5" stroke-linecap="round" stroke-linejoin="round"/>
<path d="M11.8555 22.9632V25.9723C11.8555 26.9055 12.612 27.6621 13.5453 27.6621H16.5544C17.4876 27.6621 18.2442 26.9055 18.2442 25.9723V22.9632C18.2442 22.0299 17.4876 21.2734 16.5544 21.2734H13.5453C12.612 21.2734 11.8555 22.0299 11.8555 22.9632Z" stroke="#543ED9" stroke-width="1.5" stroke-linecap="round" stroke-linejoin="round"/>
<path d="M11.8555 13.6253V16.6344C11.8555 17.5676 12.612 18.3242 13.5453 18.3242H16.5544C17.4876 18.3242 18.2442 17.5676 18.2442 16.6344V13.6253C18.2442 12.692 17.4876 11.9355 16.5544 11.9355H13.5453C12.612 11.9355 11.8555 12.692 11.8555 13.6253Z" stroke="#543ED9" stroke-width="1.5" stroke-linecap="round" stroke-linejoin="round"/>
</svg>
