<svg width="42" height="41" viewBox="0 0 42 41" fill="none" xmlns="http://www.w3.org/2000/svg">
<rect x="0.0830078" width="41" height="41" rx="10" fill="black"/>
<path fill-rule="evenodd" clip-rule="evenodd" d="M9.84819 9.40696C10.9108 10.2714 11.3088 10.2047 13.3041 10.0732L32.118 8.94229C32.5161 8.94229 32.1846 8.54425 32.0514 8.47762L28.9269 6.21921C28.3289 5.75454 27.5311 5.22325 26.0022 5.35479L7.78623 6.68387C7.11998 6.7505 6.98844 7.08191 7.25323 7.35012L9.84819 9.40696ZM10.9757 13.7922V33.5867C10.9757 34.6493 11.5087 35.0473 12.7045 34.9824L33.3805 33.7866C34.5763 33.72 34.7113 32.9888 34.7113 32.1244V12.4615C34.7113 11.6005 34.3799 11.1341 33.647 11.2007L12.04 12.4632C11.2422 12.5298 10.9757 12.9278 10.9757 13.7922ZM31.3886 14.8531C31.5218 15.451 31.3886 16.049 30.7906 16.1173L29.793 16.3155V30.9302C28.9286 31.3949 28.1308 31.6597 27.4662 31.6597C26.4019 31.6597 26.1354 31.3283 25.3394 30.3323L18.8221 20.1028V29.9992L20.884 30.4656C20.884 30.4656 20.884 31.6614 19.2218 31.6614L14.6349 31.9262C14.5017 31.6597 14.6349 30.9969 15.0996 30.8636L16.2954 30.5322V17.4464L14.6349 17.3114C14.5017 16.7135 14.8331 15.8508 15.7659 15.7842L20.6859 15.4527L27.4679 25.8155V16.6486L25.7374 16.4504C25.6041 15.7175 26.1354 15.1862 26.8017 15.1213L31.3886 14.8531ZM6.25727 4.89012L25.2027 3.49612C27.5311 3.29625 28.1291 3.4295 29.5931 4.49208L35.6406 8.74241C36.6383 9.47358 36.9714 9.67346 36.9714 10.4695V33.7866C36.9714 35.2472 36.4384 36.1099 34.578 36.2432L12.5747 37.5722C11.1756 37.6406 10.511 37.4407 9.77985 36.5097L5.32623 30.7304C4.52844 29.6661 4.19531 28.87 4.19531 27.939V7.21516C4.19531 6.01933 4.72831 5.02337 6.25556 4.89183" fill="white"/>
</svg>
