<svg width="377" height="67" viewBox="0 0 377 67" fill="none" xmlns="http://www.w3.org/2000/svg">
<path d="M227.613 63.0663C232.255 63.0629 236.791 61.6831 240.649 59.1014C244.507 56.5198 247.513 52.8521 249.286 48.5622C251.059 44.2724 251.521 39.553 250.612 35.0008C249.703 30.4487 247.465 26.2683 244.181 22.9882C240.896 19.708 236.713 17.4755 232.159 16.5729C227.606 15.6704 222.887 16.1383 218.6 17.9175C214.312 19.6967 210.649 22.7074 208.072 26.5687C205.496 30.43 204.122 34.9685 204.125 39.6105C204.127 42.6929 204.736 45.7447 205.917 48.5917C207.099 51.4387 208.83 54.0251 211.011 56.2032C213.192 58.3813 215.78 60.1084 218.629 61.286C221.478 62.4636 224.53 63.0685 227.613 63.0663Z" fill="#AF0030"/>
<path d="M226.669 29.301V49.8922H233.214V48.0392H228.556V29.2988L226.669 29.301Z" fill="white"/>
<path d="M220.111 34.9183C220.668 34.9192 221.213 34.7546 221.677 34.4456C222.141 34.1365 222.502 33.6968 222.716 33.1822C222.93 32.6675 222.986 32.101 222.877 31.5545C222.769 31.0079 222.5 30.5058 222.106 30.1118C221.712 29.7178 221.21 29.4495 220.664 29.341C220.117 29.2325 219.551 29.2886 219.036 29.5023C218.521 29.7159 218.082 30.0774 217.773 30.5411C217.463 31.0048 217.299 31.5497 217.3 32.107C217.301 32.8522 217.597 33.5667 218.124 34.0937C218.651 34.6207 219.366 34.9172 220.111 34.9183Z" fill="white"/>
<path d="M228.554 19.9593C228.307 19.9486 227.842 19.9316 227.619 19.9316C223.73 19.9304 219.929 21.0824 216.695 23.2418C213.462 25.4012 210.941 28.4711 209.452 32.0632C207.963 35.6553 207.573 39.6082 208.331 43.4221C209.089 47.2359 210.961 50.7393 213.71 53.4891C216.46 56.2389 219.963 58.1117 223.776 58.8705C227.59 59.6293 231.543 59.24 235.135 57.752C238.728 56.264 241.798 53.744 243.958 50.5107C246.119 47.2775 247.271 43.4763 247.271 39.5879V38.7188H233.231V40.5272H245.399V40.8098C245.161 44.2735 243.917 47.5924 241.819 50.3586C239.721 53.1248 236.861 55.2177 233.589 56.38C230.318 57.5424 226.778 57.7235 223.405 56.9012C220.032 56.079 216.972 54.2891 214.603 51.7516C212.233 49.2141 210.657 46.0395 210.067 42.6181C209.478 39.1967 209.9 35.6776 211.284 32.4933C212.667 29.3089 214.951 26.5982 217.854 24.6942C220.757 22.7902 224.153 21.776 227.625 21.7762C227.838 21.7762 228.331 21.7762 228.56 21.7889L228.554 19.9593Z" fill="white"/>
<path d="M268.77 24.0556H261.715V54.611H283.39V48.6609H268.77V24.0556ZM298.915 42.9681H304.653V48.3104C303.007 48.8499 301.285 49.1225 299.553 49.1179C293.201 49.1179 291.087 45.89 291.087 39.3429C291.087 33.0911 293.101 29.4084 299.453 29.4084C300.829 29.2932 302.212 29.5289 303.472 30.0934C304.732 30.6579 305.829 31.5328 306.659 32.6363L311.045 28.5989C308.371 24.7739 303.684 23.6094 299.3 23.6094C289.418 23.6094 284.229 29.0069 284.229 39.2897C284.229 49.5237 288.915 55.07 299.251 55.07C303.417 55.2016 307.537 54.1715 311.151 52.095V37.271H298.915V42.9681Z" fill="black"/>
<path d="M366.852 24.0014V16.3047H361.172V24.0014H353.666V29.4308H361.172V37.0383H366.852V29.4308H374.408V24.0014H366.852Z" fill="black"/>
<path d="M342.271 24.0332V41.6835C342.271 46.571 339.849 48.9616 335.752 48.9616C331.655 48.9616 329.232 46.5625 329.232 41.6835V24.0332H322.307V41.7918C322.307 51.4266 327.432 55.0433 335.503 55.0433H335.998C344.073 55.0433 349.196 51.4308 349.196 41.7918V24.0353L342.271 24.0332Z" fill="black"/>
<path d="M24.0001 23.936C24.2934 23.4667 24.7187 23.144 25.2761 22.968C25.8334 22.792 26.5227 22.704 27.3441 22.704C28.1947 22.704 28.8694 22.7773 29.3681 22.924C29.8667 23.0707 30.2481 23.2467 30.5121 23.452C30.7761 23.6573 30.9667 23.9653 31.0841 24.376C31.2601 24.8747 31.3481 25.6373 31.3481 26.664V39.952C31.3481 43.824 30.1454 47.344 27.7401 50.512C26.5667 52.008 25.0561 53.2253 23.2081 54.164C21.3601 55.0733 19.3067 55.528 17.0481 55.528C14.8187 55.528 12.7801 55.0587 10.9321 54.12C9.1134 53.1813 7.63206 51.9493 6.48806 50.424C4.11206 47.3147 2.92406 43.7947 2.92406 39.864V26.62C2.92406 25.916 2.93873 25.4027 2.96806 25.08C3.02673 24.728 3.1734 24.332 3.40806 23.892C3.64273 23.452 4.03873 23.144 4.59606 22.968C5.1534 22.792 5.9014 22.704 6.84006 22.704C7.77873 22.704 8.52673 22.792 9.08406 22.968C9.6414 23.144 10.0227 23.452 10.2281 23.892C10.5801 24.5667 10.7561 25.4907 10.7561 26.664V39.864C10.7561 41.6533 11.1961 43.3547 12.0761 44.968C12.5161 45.7893 13.1761 46.4493 14.0561 46.948C14.9361 47.4467 15.9774 47.696 17.1801 47.696C19.3214 47.696 20.9201 46.904 21.9761 45.32C23.0321 43.736 23.5601 41.9027 23.5601 39.82V26.356C23.5601 25.212 23.7067 24.4053 24.0001 23.936Z" fill="#E6007E"/>
<path d="M78.6697 24.112C78.963 23.584 79.3883 23.232 79.9457 23.056C80.503 22.88 81.1923 22.792 82.0137 22.792C82.8643 22.792 83.539 22.8653 84.0377 23.012C84.5657 23.1587 84.947 23.3347 85.1817 23.54C85.4457 23.7453 85.6363 24.0533 85.7537 24.464C85.9297 24.9333 86.0177 25.6813 86.0177 26.708V51.128C86.0177 51.832 85.9883 52.3453 85.9297 52.668C85.9003 52.9907 85.7683 53.372 85.5337 53.812C85.123 54.604 83.979 55 82.1017 55C80.9577 55 80.1657 54.912 79.7257 54.736C79.2857 54.56 78.919 54.2813 78.6257 53.9C72.0257 45.1 67.6843 39.3507 65.6017 36.652V51.128C65.6017 51.832 65.5723 52.3453 65.5137 52.668C65.4843 52.9907 65.3523 53.372 65.1177 53.812C64.707 54.604 63.563 55 61.6857 55C59.867 55 58.7523 54.604 58.3417 53.812C58.107 53.372 57.9603 52.976 57.9017 52.624C57.8723 52.272 57.8577 51.7587 57.8577 51.084V26.532C57.8577 25.4173 57.9897 24.6107 58.2537 24.112C58.547 23.584 58.9723 23.232 59.5297 23.056C60.087 22.88 60.8057 22.792 61.6857 22.792C62.5657 22.792 63.255 22.88 63.7537 23.056C64.2817 23.2027 64.6483 23.3787 64.8537 23.584C64.971 23.672 65.3083 24.0533 65.8657 24.728C72.055 33.1467 76.191 38.7053 78.2737 41.404V26.532C78.2737 25.4173 78.4057 24.6107 78.6697 24.112ZM104.912 22.352C109.253 22.352 113.022 23.9213 116.22 27.06C119.417 30.1987 121.016 34.1 121.016 38.764C121.016 43.3987 119.49 47.3587 116.44 50.644C113.389 53.9 109.634 55.528 105.176 55.528C100.717 55.528 96.9183 53.9147 93.7796 50.688C90.6703 47.4613 89.1156 43.6187 89.1156 39.16C89.1156 36.7253 89.5556 34.452 90.4356 32.34C91.3156 30.1987 92.489 28.4093 93.9556 26.972C95.4223 25.5347 97.109 24.4053 99.0156 23.584C100.922 22.7627 102.888 22.352 104.912 22.352ZM96.9036 38.94C96.9036 41.5507 97.7396 43.6773 99.4116 45.32C101.113 46.9333 103.005 47.74 105.088 47.74C107.17 47.74 109.048 46.948 110.72 45.364C112.392 43.78 113.228 41.6533 113.228 38.984C113.228 36.3147 112.377 34.1733 110.676 32.56C109.004 30.9467 107.126 30.14 105.044 30.14C102.961 30.14 101.084 30.9613 99.4116 32.604C97.7396 34.2173 96.9036 36.3293 96.9036 38.94ZM140.563 25.036L152.443 49.588C152.942 50.5853 153.191 51.3333 153.191 51.832C153.191 52.888 152.341 53.8413 150.639 54.692C149.642 55.1907 148.85 55.44 148.263 55.44C147.706 55.44 147.237 55.308 146.855 55.044C146.503 54.78 146.239 54.5013 146.063 54.208C145.917 53.9147 145.697 53.4747 145.403 52.888L143.115 48.136H130.927L128.639 52.888C128.346 53.4747 128.111 53.9 127.935 54.164C127.789 54.428 127.525 54.7067 127.143 55C126.791 55.264 126.322 55.396 125.735 55.396C125.178 55.396 124.401 55.1467 123.403 54.648C121.702 53.8267 120.851 52.888 120.851 51.832C120.851 51.3333 121.101 50.5853 121.599 49.588L133.479 24.992C133.802 24.3173 134.286 23.7747 134.931 23.364C135.606 22.9533 136.31 22.748 137.043 22.748C138.627 22.748 139.801 23.5107 140.563 25.036ZM136.999 35.596L134.095 41.624H139.947L136.999 35.596Z" fill="#543ED9"/>
<rect x="41" y="16" width="6" height="20" rx="3" fill="#E6007E"/>
<rect x="34" y="29" width="6" height="20" rx="3" transform="rotate(-90 34 29)" fill="#E6007E"/>
<line x1="178.5" y1="58.0273" x2="178.5" y2="19.9747" stroke="#121212"/>
</svg>
