<svg width="579" height="433" viewBox="0 0 579 433" fill="none" xmlns="http://www.w3.org/2000/svg">
<g opacity="0.9">
<circle cx="28.5" cy="147.5" r="27.5" fill="url(#paint0_linear_1038_318)"/>
</g>
<g filter="url(#filter0_d_1038_318)">
<path d="M35.216 16.816C35.6427 16.1333 36.2613 15.664 37.072 15.408C37.8827 15.152 38.8853 15.024 40.08 15.024C41.3173 15.024 42.2987 15.1307 43.024 15.344C43.7493 15.5573 44.304 15.8133 44.688 16.112C45.072 16.4107 45.3493 16.8587 45.52 17.456C45.776 18.1813 45.904 19.2907 45.904 20.784V40.112C45.904 45.744 44.1547 50.864 40.656 55.472C38.9493 57.648 36.752 59.4187 34.064 60.784C31.376 62.1067 28.3893 62.768 25.104 62.768C21.8613 62.768 18.896 62.0853 16.208 60.72C13.5627 59.3547 11.408 57.5627 9.744 55.344C6.288 50.8213 4.56 45.7013 4.56 39.984V20.72C4.56 19.696 4.58133 18.9493 4.624 18.48C4.70933 17.968 4.92267 17.392 5.264 16.752C5.60533 16.112 6.18133 15.664 6.992 15.408C7.80267 15.152 8.89067 15.024 10.256 15.024C11.6213 15.024 12.7093 15.152 13.52 15.408C14.3307 15.664 14.8853 16.112 15.184 16.752C15.696 17.7333 15.952 19.0773 15.952 20.784V39.984C15.952 42.5867 16.592 45.0613 17.872 47.408C18.512 48.6027 19.472 49.5627 20.752 50.288C22.032 51.0133 23.5467 51.376 25.296 51.376C28.4107 51.376 30.736 50.224 32.272 47.92C33.808 45.616 34.576 42.9493 34.576 39.92V20.336C34.576 18.672 34.7893 17.4987 35.216 16.816ZM274.645 17.072C275.071 16.304 275.69 15.792 276.501 15.536C277.311 15.28 278.314 15.152 279.509 15.152C280.746 15.152 281.727 15.2587 282.453 15.472C283.221 15.6853 283.775 15.9413 284.117 16.24C284.501 16.5387 284.778 16.9867 284.949 17.584C285.205 18.2667 285.333 19.3547 285.333 20.848V56.368C285.333 57.392 285.29 58.1387 285.205 58.608C285.162 59.0773 284.97 59.632 284.629 60.272C284.031 61.424 282.367 62 279.637 62C277.973 62 276.821 61.872 276.181 61.616C275.541 61.36 275.007 60.9547 274.581 60.4C264.981 47.6 258.666 39.2373 255.637 35.312V56.368C255.637 57.392 255.594 58.1387 255.509 58.608C255.466 59.0773 255.274 59.632 254.933 60.272C254.335 61.424 252.671 62 249.941 62C247.295 62 245.674 61.424 245.077 60.272C244.735 59.632 244.522 59.056 244.437 58.544C244.394 58.032 244.373 57.2853 244.373 56.304V20.592C244.373 18.9707 244.565 17.7973 244.949 17.072C245.375 16.304 245.994 15.792 246.805 15.536C247.615 15.28 248.661 15.152 249.941 15.152C251.221 15.152 252.223 15.28 252.949 15.536C253.717 15.7493 254.25 16.0053 254.549 16.304C254.719 16.432 255.21 16.9867 256.021 17.968C265.023 30.2133 271.039 38.2987 274.069 42.224V20.592C274.069 18.9707 274.261 17.7973 274.645 17.072ZM312.451 14.512C318.766 14.512 324.248 16.7947 328.899 21.36C333.55 25.9253 335.875 31.6 335.875 38.384C335.875 45.1253 333.656 50.8853 329.219 55.664C324.782 60.4 319.32 62.768 312.835 62.768C306.35 62.768 300.824 60.4213 296.259 55.728C291.736 51.0347 289.475 45.4453 289.475 38.96C289.475 35.4187 290.115 32.112 291.395 29.04C292.675 25.9253 294.382 23.3227 296.515 21.232C298.648 19.1413 301.102 17.4987 303.875 16.304C306.648 15.1093 309.507 14.512 312.451 14.512ZM300.803 38.64C300.803 42.4373 302.019 45.5307 304.451 47.92C306.926 50.2667 309.678 51.44 312.707 51.44C315.736 51.44 318.467 50.288 320.899 47.984C323.331 45.68 324.547 42.5867 324.547 38.704C324.547 34.8213 323.31 31.7067 320.835 29.36C318.403 27.0133 315.672 25.84 312.643 25.84C309.614 25.84 306.883 27.0347 304.451 29.424C302.019 31.7707 300.803 34.8427 300.803 38.64ZM363.945 18.416L381.225 54.128C381.95 55.5787 382.313 56.6667 382.313 57.392C382.313 58.928 381.075 60.3147 378.601 61.552C377.15 62.2773 375.998 62.64 375.145 62.64C374.334 62.64 373.651 62.448 373.097 62.064C372.585 61.68 372.201 61.2747 371.944 60.848C371.731 60.4213 371.411 59.7813 370.985 58.928L367.657 52.016H349.929L346.601 58.928C346.174 59.7813 345.833 60.4 345.577 60.784C345.363 61.168 344.979 61.5733 344.425 62C343.913 62.384 343.23 62.576 342.377 62.576C341.566 62.576 340.435 62.2133 338.985 61.488C336.51 60.2933 335.273 58.928 335.273 57.392C335.273 56.6667 335.635 55.5787 336.361 54.128L353.641 18.352C354.11 17.3707 354.814 16.5813 355.753 15.984C356.734 15.3867 357.758 15.088 358.825 15.088C361.129 15.088 362.835 16.1973 363.945 18.416ZM358.761 33.776L354.537 42.544H363.049L358.761 33.776Z" fill="#543ED9"/>
<path d="M87.025 45.104L95.537 52.144C96.6037 53.04 97.265 53.7227 97.521 54.192C97.8197 54.6613 97.969 55.1093 97.969 55.536C97.969 56.56 97.3077 57.9467 95.985 59.696C94.5343 61.488 93.2543 62.384 92.145 62.384C91.2063 62.384 89.905 61.7653 88.241 60.528L87.601 60.08C86.6197 59.2693 85.105 57.8613 83.057 55.856C81.009 53.808 79.4517 52.3573 78.385 51.504V56.432C78.385 57.4133 78.3423 58.16 78.257 58.672C78.2143 59.1413 78.0223 59.696 77.681 60.336C77.1263 61.4453 75.4837 62 72.753 62C70.065 62 68.4223 61.424 67.825 60.272C67.5263 59.632 67.3343 59.0773 67.249 58.608C67.2063 58.096 67.185 57.3493 67.185 56.368V18.032C67.185 17.0507 67.2063 16.3253 67.249 15.856C67.3343 15.344 67.5263 14.768 67.825 14.128C68.4223 12.976 70.0863 12.4 72.817 12.4C74.865 12.4 76.3157 12.7627 77.169 13.488C77.8943 14.0853 78.2783 15.024 78.321 16.304C78.3637 16.688 78.385 17.2853 78.385 18.096V38.384C79.153 37.744 80.305 36.656 81.841 35.12C83.4197 33.584 84.593 32.496 85.361 31.856L86.129 31.344C87.6223 30.192 88.9023 29.616 89.969 29.616C91.0357 29.616 92.2517 30.4907 93.617 32.24C95.025 33.9467 95.729 35.2907 95.729 36.272C95.729 37.2533 94.9397 38.4053 93.361 39.728L87.025 45.104ZM120.25 28.272C124.516 28.272 128.058 29.9147 130.874 33.2C133.732 36.4427 135.162 40.4107 135.162 45.104V56.368C135.162 57.3493 135.119 58.096 135.034 58.608C134.991 59.0773 134.82 59.6107 134.522 60.208C133.924 61.36 132.26 61.936 129.53 61.936C126.5 61.936 124.751 61.1467 124.282 59.568C124.026 58.8427 123.898 57.7547 123.898 56.304V45.04C123.898 43.2907 123.386 41.9253 122.362 40.944C121.38 39.9627 120.036 39.472 118.33 39.472C116.666 39.472 115.3 39.984 114.234 41.008C113.21 42.032 112.698 43.376 112.698 45.04V56.368C112.698 57.3493 112.655 58.096 112.57 58.608C112.527 59.0773 112.335 59.6107 111.994 60.208C111.439 61.36 109.796 61.936 107.066 61.936C104.378 61.936 102.735 61.36 102.138 60.208C101.839 59.568 101.647 59.0133 101.562 58.544C101.519 58.032 101.498 57.2853 101.498 56.304V33.648C101.498 32.7093 101.519 32.0053 101.562 31.536C101.647 31.024 101.86 30.4693 102.202 29.872C102.799 28.8053 104.442 28.272 107.13 28.272C109.732 28.272 111.332 28.7627 111.93 29.744C112.356 30.4693 112.57 31.344 112.57 32.368C112.74 32.0693 113.124 31.6427 113.722 31.088C114.319 30.5333 114.895 30.0853 115.45 29.744C116.9 28.7627 118.5 28.272 120.25 28.272ZM139.35 45.168C139.35 40.048 141.142 35.824 144.726 32.496C148.31 29.168 152.406 27.504 157.014 27.504C161.622 27.504 165.697 29.168 169.238 32.496C172.779 35.7813 174.55 39.984 174.55 45.104C174.55 48.6453 173.633 51.8027 171.798 54.576C169.963 57.3067 167.723 59.3333 165.078 60.656C162.475 61.936 159.766 62.576 156.95 62.576C154.134 62.576 151.403 61.8933 148.758 60.528C146.113 59.12 143.873 57.072 142.038 54.384C140.246 51.6533 139.35 48.5813 139.35 45.168ZM152.726 49.776C154.091 50.8 155.478 51.312 156.886 51.312C158.294 51.312 159.702 50.7787 161.11 49.712C162.518 48.6453 163.222 47.0667 163.222 44.976C163.222 42.8853 162.561 41.328 161.238 40.304C159.915 39.28 158.486 38.768 156.95 38.768C155.414 38.768 153.985 39.3013 152.662 40.368C151.339 41.4347 150.678 43.0133 150.678 45.104C150.678 47.152 151.361 48.7093 152.726 49.776ZM220.571 28.528C223.302 29.7227 224.667 31.1947 224.667 32.944C224.667 33.6693 224.326 34.8427 223.643 36.464C222.96 38.0427 222.384 39.4293 221.915 40.624L214.875 57.776C214.235 59.6533 213.168 60.976 211.675 61.744C211.035 62.0427 210.224 62.192 209.243 62.192C208.262 62.192 207.302 61.8293 206.363 61.104C205.467 60.336 204.87 59.568 204.571 58.8L204.059 57.712C203.718 56.8587 202.459 53.5307 200.283 47.728C199.856 48.752 199.216 50.4373 198.363 52.784C197.552 55.088 197.019 56.5387 196.763 57.136C196.55 57.6907 196.4 58.0747 196.315 58.288C196.272 58.4587 196.102 58.8 195.803 59.312C195.504 59.824 195.163 60.272 194.779 60.656C193.755 61.68 192.582 62.192 191.259 62.192C189.936 62.192 188.827 61.8293 187.931 61.104C187.035 60.336 186.438 59.568 186.139 58.8L176.475 35.248C176.048 33.968 175.835 33.136 175.835 32.752C175.835 31.0453 177.051 29.7013 179.483 28.72C180.848 28.1653 181.958 27.888 182.811 27.888C183.664 27.888 184.347 28.08 184.859 28.464C185.414 28.8053 185.798 29.168 186.011 29.552C186.224 29.8933 186.395 30.256 186.523 30.64C187.248 32.3467 188.763 36.3573 191.067 42.672L194.843 32.304C195.099 31.4507 195.568 30.704 196.251 30.064C197.488 28.8267 198.747 28.208 200.027 28.208C201.307 28.208 202.395 28.5493 203.291 29.232C204.23 29.9147 204.87 30.5973 205.211 31.28L205.723 32.368C207.856 38.3413 209.115 41.7547 209.499 42.608L213.403 31.984C214.427 29.2533 215.963 27.888 218.011 27.888C218.822 27.888 219.675 28.1013 220.571 28.528Z" fill="white"/>
</g>
<path d="M81.4062 171V158.273H82.9883V169.594H88.8945V171H81.4062ZM99.1777 162.246C98.6328 160.611 97.3848 159.574 95.5742 159.574C93.3242 159.574 91.5312 161.35 91.5312 164.637C91.5312 167.924 93.3242 169.699 95.6797 169.699C97.833 169.699 99.3008 168.258 99.3359 166.008H96.0137V164.619H100.883V165.99C100.883 169.154 98.7031 171.176 95.6797 171.176C92.2871 171.176 90.002 168.662 90.002 164.637C90.002 160.611 92.3047 158.098 95.5742 158.098C98.2637 158.098 100.338 159.785 100.812 162.246H99.1777ZM116.105 158.273H117.688V166.693C117.688 169.312 115.736 171.229 112.73 171.229C109.725 171.229 107.773 169.312 107.773 166.693V158.273H109.355V166.57C109.355 168.416 110.639 169.752 112.73 169.752C114.84 169.752 116.105 168.416 116.105 166.57V158.273ZM124.016 168.768V165.357H120.623V163.934H124.016V160.541H125.439V163.934H128.85V165.357H125.439V168.768H124.016ZM149.838 169.26V170.42H135.529V169.26H139.08V165.041C137.744 164.347 136.936 163.222 136.936 161.807C136.936 159.381 139.309 157.799 142.648 157.781C145.988 157.799 148.361 159.381 148.361 161.807C148.361 163.195 147.579 164.312 146.287 165.006V169.26H149.838ZM142.648 158.924C140.082 158.906 138.271 160.066 138.271 161.807C138.271 163.547 140.082 164.725 142.648 164.725C145.197 164.725 147.025 163.547 147.025 161.807C147.025 160.066 145.197 158.906 142.648 158.924ZM140.434 169.26H144.898V165.533C144.222 165.718 143.466 165.814 142.648 165.814C141.849 165.814 141.102 165.727 140.434 165.551V169.26ZM163.514 157.641V158.801C163.514 160.014 163.514 161.438 163.109 163.389H165.395V164.531H151.086V163.389H161.721C162.143 161.429 162.143 160.014 162.143 158.801V158.783H152.896V157.641H163.514ZM163.584 166.693V172.213H152.844V166.693H163.584ZM154.215 167.783V171.088H162.213V167.783H154.215ZM180.002 156.797V172.424H178.684V156.797H180.002ZM176.838 157.184V171.615H175.537V163.564H172.9V162.439H175.537V157.184H176.838ZM171.23 161.262C171.23 163.969 172.443 166.658 174.605 167.906L173.762 168.926C172.224 168.003 171.134 166.315 170.598 164.32C170.026 166.474 168.893 168.311 167.328 169.295L166.449 168.258C168.629 166.957 169.895 164.109 169.895 161.262V159.785H166.889V158.643H174.096V159.785H171.23V161.262ZM195.594 156.797V172.424H194.258V156.797H195.594ZM192.447 157.131V171.633H191.129V164.039H189.125C188.976 167.08 187.684 168.979 185.75 168.979C183.711 168.979 182.393 166.869 182.393 163.547C182.393 160.225 183.711 158.115 185.75 158.115C187.648 158.115 188.932 159.952 189.107 162.896H191.129V157.131H192.447ZM185.75 159.416C184.484 159.416 183.676 160.998 183.693 163.547C183.676 166.078 184.484 167.678 185.75 167.66C187.016 167.678 187.824 166.078 187.824 163.547C187.824 160.998 187.016 159.416 185.75 159.416ZM215.633 156.797V172.424H214.314V164.232H212.012V171.615H210.746V157.148H212.012V163.09H214.314V156.797H215.633ZM208.707 158.713V159.855H204.225V167.379C206.378 167.37 207.872 167.291 209.604 166.939L209.727 168.1C207.846 168.486 206.246 168.557 203.855 168.557H202.854V158.713H208.707ZM225.635 159.504V160.629H217.795V159.504H221.047V157.271H222.418V159.504H225.635ZM221.715 161.684C223.684 161.684 225.09 163.16 225.107 165.234C225.09 167.326 223.684 168.82 221.715 168.82C219.764 168.82 218.357 167.326 218.357 165.234C218.357 163.16 219.764 161.684 221.715 161.684ZM221.715 162.844C220.484 162.861 219.588 163.863 219.588 165.234C219.588 166.623 220.484 167.625 221.715 167.607C222.963 167.625 223.877 166.623 223.877 165.234C223.877 163.863 222.963 162.861 221.715 162.844ZM231.137 156.797V172.424H229.818V164.531H227.744V171.65H226.443V157.184H227.744V163.389H229.818V156.797H231.137ZM248.785 158.273V171H247.273L240.383 161.086H240.26V171H238.678V158.273H240.207L247.098 168.205H247.221V158.273H248.785ZM262.355 164.637C262.355 168.662 259.982 171.176 256.73 171.176C253.461 171.176 251.105 168.662 251.105 164.637C251.105 160.611 253.461 158.098 256.73 158.098C259.982 158.098 262.355 160.611 262.355 164.637ZM260.826 164.637C260.826 161.35 259.033 159.574 256.73 159.574C254.428 159.574 252.635 161.35 252.635 164.637C252.635 167.924 254.428 169.699 256.73 169.699C259.033 169.699 260.826 167.924 260.826 164.637ZM264.623 171H262.971L267.629 158.273H269.299L273.957 171H272.287L271.021 167.414H265.906L264.623 171ZM266.381 166.025H270.529L268.508 160.33H268.402L266.381 166.025ZM287 156.797V163.16H289.531V164.32H287V172.424H285.629V156.797H287ZM282.957 158.484C282.957 162.914 280.883 166.939 275.785 169.453L275.012 168.363C279.055 166.351 281.252 163.345 281.568 159.645H275.732V158.484H282.957ZM298.848 166.535V168.24H306.424V166.535H307.777V172.213H297.477V166.535H298.848ZM298.848 171.088H306.424V169.33H298.848V171.088ZM307.777 156.814V165.779H306.406V156.814H307.777ZM294.998 163.652C297.969 163.652 301.889 163.652 305.334 163.213L305.422 164.197C304.007 164.435 302.548 164.575 301.115 164.654V167.01H299.744V164.725C298.101 164.795 296.545 164.795 295.191 164.795L294.998 163.652ZM300.975 157.975C300.975 159.574 302.574 160.893 304.824 161.385L304.227 162.439C302.398 162.026 300.966 161.068 300.289 159.75C299.621 161.156 298.188 162.202 296.334 162.686L295.701 161.596C297.969 161.068 299.551 159.645 299.568 157.975V157.184H300.975V157.975ZM323.914 156.797V172.424H322.596V156.797H323.914ZM320.627 157.219V171.633H319.309V164.338H316.004C315.046 166.157 313.543 167.766 311.363 169.049L310.555 168.047C313.956 166.034 315.661 163.213 315.916 159.943H311.223V158.801H317.287C317.278 160.339 317.032 161.824 316.514 163.213H319.309V157.219H320.627ZM342.828 156.797V160.189H345.184V161.35H342.828V164.76H341.457V156.797H342.828ZM342.828 165.498V169.312H334.25V171.105H343.408V172.213H332.896V168.258H341.457V166.605H332.861V165.498H342.828ZM334.971 157.377C337.326 157.395 339.031 158.801 339.031 160.84C339.031 162.896 337.326 164.32 334.971 164.32C332.633 164.32 330.893 162.896 330.91 160.84C330.893 158.801 332.633 157.395 334.971 157.377ZM334.971 158.537C333.406 158.52 332.246 159.486 332.264 160.84C332.246 162.211 333.406 163.195 334.971 163.195C336.535 163.195 337.678 162.211 337.678 160.84C337.678 159.486 336.535 158.52 334.971 158.537ZM359.105 156.797V172.459H357.734V165.797H354.482V164.637H357.734V161.525H354.605V160.365H357.734V156.797H359.105ZM353.586 158.221V163.775H348.137V167.625C350.483 167.616 352.426 167.528 354.799 167.168L354.922 168.328C352.426 168.715 350.422 168.803 347.926 168.803H346.766V162.65H352.232V159.363H346.713V158.221H353.586ZM374.346 164.32V165.463H363.553V158.256H374.188V159.398H364.924V164.32H374.346ZM376.033 169.137V170.297H361.725V169.137H376.033ZM385.244 157.57V161.385H379.443V163.318C382.405 163.318 384.409 163.239 386.861 162.861L386.984 163.934C384.471 164.338 382.414 164.426 379.338 164.426H378.072V160.365H383.891V158.643H378.02V157.57H385.244ZM390.184 165.727V169.4H381.43V171.141H390.746V172.248H380.059V168.363H388.777V166.816H380.023V165.727H390.184ZM390.184 156.797V165.041H388.812V156.797H390.184ZM406.215 156.797V172.424H404.896V156.797H406.215ZM402.928 157.219V171.633H401.609V164.338H398.305C397.347 166.157 395.844 167.766 393.664 169.049L392.855 168.047C396.257 166.034 397.962 163.213 398.217 159.943H393.523V158.801H399.588C399.579 160.339 399.333 161.824 398.814 163.213H401.609V157.219H402.928ZM422.703 169.26V170.42H408.395V169.26H411.945V165.041C410.609 164.347 409.801 163.222 409.801 161.807C409.801 159.381 412.174 157.799 415.514 157.781C418.854 157.799 421.227 159.381 421.227 161.807C421.227 163.195 420.444 164.312 419.152 165.006V169.26H422.703ZM415.514 158.924C412.947 158.906 411.137 160.066 411.137 161.807C411.137 163.547 412.947 164.725 415.514 164.725C418.062 164.725 419.891 163.547 419.891 161.807C419.891 160.066 418.062 158.906 415.514 158.924ZM413.299 169.26H417.764V165.533C417.087 165.718 416.331 165.814 415.514 165.814C414.714 165.814 413.967 165.727 413.299 165.551V169.26ZM426.482 158.273L426.359 167.414H424.883L424.76 158.273H426.482ZM425.621 171.105C425.006 171.105 424.479 170.596 424.496 169.963C424.479 169.348 425.006 168.838 425.621 168.838C426.236 168.838 426.746 169.348 426.746 169.963C426.746 170.596 426.236 171.105 425.621 171.105Z" fill="#F5F5F5"/>
<path d="M87.2891 130.273C87.2891 132.016 87.6289 133.609 88.3086 135.055C88.9961 136.492 90.0625 137.594 91.5078 138.359L89.8438 140.562C88.9141 140.086 88.1211 139.438 87.4648 138.617C86.8086 137.797 86.2891 136.848 85.9062 135.77C85.5156 136.957 84.9922 138.004 84.3359 138.91C83.6797 139.809 82.8828 140.523 81.9453 141.055L80.2578 138.805C81.2266 138.25 82.0234 137.523 82.6484 136.625C83.2734 135.719 83.7305 134.723 84.0195 133.637C84.3164 132.551 84.4688 131.43 84.4766 130.273V129.875H80.9375V127.438H84.4766V124.555H87.2656V127.438H90.7812V129.875H87.2891V130.273ZM99.2422 145.156H96.3828V134.469H94.5781V144.172H91.7422V124.133H94.5781V132.031H96.3828V123.828H99.2422V145.156ZM112.883 127.695H105.547V129.359H112.25V131.68H105.547V133.391C107.656 133.391 109.34 133.359 110.598 133.297C111.863 133.234 113.125 133.102 114.383 132.898L114.688 135.242C113.391 135.453 112.078 135.598 110.75 135.676C109.43 135.746 107.766 135.781 105.758 135.781H104.375H102.547V125.305H112.883V127.695ZM119.234 136.766H116.234V123.852H119.234V136.766ZM111.969 137.047C113.461 137.047 114.762 137.207 115.871 137.527C116.98 137.848 117.836 138.312 118.438 138.922C119.039 139.531 119.344 140.258 119.352 141.102C119.344 141.953 119.039 142.68 118.438 143.281C117.836 143.891 116.98 144.355 115.871 144.676C114.77 144.996 113.469 145.156 111.969 145.156C110.453 145.156 109.145 144.996 108.043 144.676C106.941 144.363 106.098 143.902 105.512 143.293C104.926 142.684 104.633 141.953 104.633 141.102C104.633 140.258 104.926 139.531 105.512 138.922C106.098 138.312 106.941 137.848 108.043 137.527C109.145 137.207 110.453 137.047 111.969 137.047ZM111.969 139.367C110.539 139.367 109.453 139.516 108.711 139.812C107.977 140.102 107.609 140.531 107.609 141.102C107.609 141.688 107.977 142.133 108.711 142.438C109.453 142.734 110.539 142.883 111.969 142.883C113.391 142.883 114.477 142.734 115.227 142.438C115.977 142.133 116.352 141.688 116.352 141.102C116.352 140.531 115.977 140.102 115.227 139.812C114.484 139.516 113.398 139.367 111.969 139.367ZM147.172 142.672H127.648V140.211H135.875V135.852H129.711V125.398H144.992V135.852H138.852V140.211H147.172V142.672ZM132.664 133.508H142.039V127.789H132.664V133.508ZM165.781 136.086H150.688V125.609H165.617V128.023H153.641V133.695H165.781V136.086ZM167.914 142.555H148.391V140.094H167.914V142.555Z" fill="#543ED9"/>
<path d="M187.625 145.156H184.766V123.828H187.625V145.156ZM183.172 144.172H180.359V134.094H178.637C178.551 135.484 178.301 136.684 177.887 137.691C177.48 138.699 176.941 139.473 176.27 140.012C175.598 140.551 174.828 140.82 173.961 140.82C173.031 140.82 172.215 140.508 171.512 139.883C170.816 139.258 170.277 138.363 169.895 137.199C169.512 136.027 169.32 134.648 169.32 133.062C169.32 131.484 169.512 130.117 169.895 128.961C170.277 127.797 170.816 126.906 171.512 126.289C172.215 125.664 173.031 125.352 173.961 125.352C174.812 125.352 175.566 125.605 176.223 126.113C176.887 126.621 177.422 127.355 177.828 128.316C178.242 129.27 178.504 130.406 178.613 131.727H180.359V124.133H183.172V144.172ZM173.961 128.164C173.352 128.164 172.883 128.578 172.555 129.406C172.234 130.234 172.078 131.453 172.086 133.062C172.078 134.68 172.234 135.902 172.555 136.73C172.883 137.551 173.352 137.953 173.961 137.938C174.578 137.953 175.055 137.551 175.391 136.73C175.734 135.902 175.906 134.68 175.906 133.062C175.906 131.453 175.734 130.234 175.391 129.406C175.055 128.578 174.578 128.164 173.961 128.164ZM197.867 127.484C197.867 128.438 198.043 129.352 198.395 130.227C198.746 131.094 199.285 131.871 200.012 132.559C200.738 133.238 201.648 133.758 202.742 134.117L201.125 136.461C200.023 136.055 199.074 135.477 198.277 134.727C197.488 133.977 196.863 133.094 196.402 132.078C195.934 133.227 195.273 134.219 194.422 135.055C193.578 135.883 192.555 136.516 191.352 136.953L189.734 134.609C190.883 134.234 191.836 133.684 192.594 132.957C193.359 132.23 193.926 131.395 194.293 130.449C194.66 129.504 194.844 128.508 194.844 127.461V125.141H197.867V127.484ZM207.852 139.602H204.875V130.789H200.867V128.375H204.875V123.852H207.852V139.602ZM208.297 144.781H193.648V137.938H196.672V142.391H208.297V144.781ZM235.672 142.672H216.148V140.211H220.508V134.996C219.664 134.488 219.012 133.863 218.551 133.121C218.09 132.371 217.859 131.531 217.859 130.602C217.859 129.469 218.203 128.469 218.891 127.602C219.578 126.734 220.527 126.062 221.738 125.586C222.957 125.102 224.336 124.859 225.875 124.859C227.406 124.859 228.777 125.102 229.988 125.586C231.207 126.062 232.164 126.734 232.859 127.602C233.555 128.469 233.906 129.469 233.914 130.602C233.906 131.508 233.676 132.332 233.223 133.074C232.777 133.809 232.148 134.43 231.336 134.938V140.211H235.672V142.672ZM225.875 127.227C224.859 127.227 223.969 127.359 223.203 127.625C222.445 127.891 221.855 128.277 221.434 128.785C221.02 129.285 220.812 129.891 220.812 130.602C220.812 131.289 221.02 131.887 221.434 132.395C221.855 132.902 222.449 133.293 223.215 133.566C223.98 133.84 224.867 133.977 225.875 133.977C226.875 133.977 227.758 133.84 228.523 133.566C229.289 133.293 229.883 132.902 230.305 132.395C230.734 131.887 230.953 131.289 230.961 130.602C230.953 129.898 230.738 129.293 230.316 128.785C229.895 128.277 229.301 127.891 228.535 127.625C227.77 127.359 226.883 127.227 225.875 127.227ZM228.312 140.211V136.074C227.508 136.223 226.695 136.297 225.875 136.297C225 136.297 224.195 136.223 223.461 136.074V140.211H228.312ZM254.094 126.5C254.094 127.641 254.066 128.648 254.012 129.523C253.957 130.398 253.816 131.375 253.59 132.453H256.414V134.867H236.891V132.453H250.578C250.789 131.492 250.93 130.605 251 129.793C251.07 128.973 251.109 128.102 251.117 127.18H239.281V124.789H254.094V126.5ZM254.023 144.922H239.211V137.117H254.023V144.922ZM242.141 142.531H251.047V139.461H242.141V142.531ZM276.078 145.156H273.242V123.828H276.078V145.156ZM271.719 144.172H268.906V133.555H266.094V131.141H268.906V124.18H271.719V144.172ZM264.383 129.547C264.383 131.484 264.719 133.246 265.391 134.832C266.07 136.41 267.141 137.617 268.602 138.453L266.844 140.656C265.922 140.109 265.137 139.383 264.488 138.477C263.848 137.57 263.344 136.523 262.977 135.336C262.594 136.633 262.07 137.777 261.406 138.77C260.742 139.762 259.938 140.547 258.992 141.125L257.188 138.922C258.188 138.312 259.008 137.512 259.648 136.52C260.297 135.52 260.766 134.426 261.055 133.238C261.352 132.051 261.5 130.82 261.5 129.547V128.398H258.008V126.008H267.617V128.398H264.383V129.547ZM296.867 145.156H294.008V123.828H296.867V145.156ZM292.414 144.172H289.602V134.094H287.879C287.793 135.484 287.543 136.684 287.129 137.691C286.723 138.699 286.184 139.473 285.512 140.012C284.84 140.551 284.07 140.82 283.203 140.82C282.273 140.82 281.457 140.508 280.754 139.883C280.059 139.258 279.52 138.363 279.137 137.199C278.754 136.027 278.562 134.648 278.562 133.062C278.562 131.484 278.754 130.117 279.137 128.961C279.52 127.797 280.059 126.906 280.754 126.289C281.457 125.664 282.273 125.352 283.203 125.352C284.055 125.352 284.809 125.605 285.465 126.113C286.129 126.621 286.664 127.355 287.07 128.316C287.484 129.27 287.746 130.406 287.855 131.727H289.602V124.133H292.414V144.172ZM283.203 128.164C282.594 128.164 282.125 128.578 281.797 129.406C281.477 130.234 281.32 131.453 281.328 133.062C281.32 134.68 281.477 135.902 281.797 136.73C282.125 137.551 282.594 137.953 283.203 137.938C283.82 137.953 284.297 137.551 284.633 136.73C284.977 135.902 285.148 134.68 285.148 133.062C285.148 131.453 284.977 130.234 284.633 129.406C284.297 128.578 283.82 128.164 283.203 128.164ZM323.094 145.156H320.258V134.445H318.195V144.125H315.453V124.18H318.195V132.055H320.258V123.828H323.094V145.156ZM313.203 128.703H308.258V137.809C309.383 137.793 310.414 137.75 311.352 137.68C312.289 137.609 313.242 137.484 314.211 137.305L314.422 139.742C313.227 139.969 312.055 140.121 310.906 140.199C309.758 140.27 308.367 140.312 306.734 140.328H305.258V126.289H313.203V128.703ZM335.68 129.453H325.367V127.086H329.07V124.414H332.023V127.086H335.68V129.453ZM330.57 130.414C331.469 130.414 332.27 130.633 332.973 131.07C333.684 131.5 334.238 132.098 334.637 132.863C335.043 133.629 335.25 134.5 335.258 135.477C335.25 136.453 335.043 137.328 334.637 138.102C334.238 138.875 333.684 139.48 332.973 139.918C332.27 140.348 331.469 140.562 330.57 140.562C329.672 140.562 328.863 140.348 328.145 139.918C327.434 139.48 326.875 138.875 326.469 138.102C326.062 137.328 325.859 136.453 325.859 135.477C325.859 134.508 326.062 133.641 326.469 132.875C326.875 132.102 327.434 131.5 328.145 131.07C328.863 130.633 329.672 130.414 330.57 130.414ZM330.57 132.898C329.938 132.898 329.43 133.129 329.047 133.59C328.672 134.051 328.484 134.68 328.484 135.477C328.484 136.273 328.672 136.898 329.047 137.352C329.43 137.805 329.938 138.031 330.57 138.031C331.18 138.031 331.672 137.805 332.047 137.352C332.43 136.898 332.625 136.273 332.633 135.477C332.625 134.68 332.43 134.051 332.047 133.59C331.672 133.129 331.18 132.898 330.57 132.898ZM343.836 145.156H341V134.891H339.266V144.242H336.477V124.25H339.266V132.5H341V123.828H343.836V145.156ZM368.867 126.266C368.867 127.367 368.84 128.344 368.785 129.195C368.738 130.047 368.617 130.977 368.422 131.984H371.188V134.375H362.867V137.012C364.125 137.105 365.207 137.324 366.113 137.668C367.02 138.012 367.715 138.469 368.199 139.039C368.684 139.609 368.93 140.273 368.938 141.031C368.93 141.906 368.621 142.652 368.012 143.27C367.41 143.887 366.543 144.355 365.41 144.676C364.285 144.996 362.945 145.156 361.391 145.156C359.82 145.156 358.469 144.996 357.336 144.676C356.203 144.355 355.332 143.887 354.723 143.27C354.121 142.652 353.82 141.906 353.82 141.031C353.82 140.273 354.059 139.609 354.535 139.039C355.02 138.469 355.715 138.016 356.621 137.68C357.527 137.336 358.617 137.113 359.891 137.012V134.375H351.664V131.984H365.41C365.598 131.062 365.723 130.211 365.785 129.43C365.848 128.648 365.883 127.82 365.891 126.945H354.055V124.578H368.867V126.266ZM361.391 139.32C358.344 139.32 356.82 139.891 356.82 141.031C356.82 142.203 358.344 142.789 361.391 142.789C364.406 142.789 365.914 142.203 365.914 141.031C365.914 140.461 365.531 140.035 364.766 139.754C364 139.465 362.875 139.32 361.391 139.32ZM389.609 126.5C389.609 127.641 389.582 128.648 389.527 129.523C389.473 130.398 389.332 131.375 389.105 132.453H391.93V134.867H372.406V132.453H386.094C386.305 131.492 386.445 130.605 386.516 129.793C386.586 128.973 386.625 128.102 386.633 127.18H374.797V124.789H389.609V126.5ZM389.539 144.922H374.727V137.117H389.539V144.922ZM377.656 142.531H386.562V139.461H377.656V142.531ZM410.07 130.391H412.953V132.828H410.07V139.766H407.07V123.852H410.07V130.391ZM405.805 128.445H393.148V126.078H398V123.805H400.977V126.078H405.805V128.445ZM399.477 129.195C400.5 129.195 401.406 129.367 402.195 129.711C402.992 130.055 403.613 130.539 404.059 131.164C404.504 131.789 404.727 132.508 404.727 133.32C404.727 134.133 404.504 134.848 404.059 135.465C403.621 136.074 403.004 136.551 402.207 136.895C401.41 137.23 400.5 137.398 399.477 137.398C398.445 137.398 397.527 137.23 396.723 136.895C395.926 136.551 395.301 136.074 394.848 135.465C394.402 134.848 394.18 134.133 394.18 133.32C394.18 132.508 394.402 131.789 394.848 131.164C395.301 130.539 395.926 130.055 396.723 129.711C397.527 129.367 398.445 129.195 399.477 129.195ZM399.477 131.469C398.75 131.484 398.172 131.652 397.742 131.973C397.312 132.293 397.102 132.742 397.109 133.32C397.102 133.898 397.309 134.344 397.73 134.656C398.16 134.969 398.742 135.125 399.477 135.125C400.211 135.125 400.797 134.969 401.234 134.656C401.672 134.336 401.891 133.891 401.891 133.32C401.891 132.742 401.672 132.293 401.234 131.973C400.797 131.652 400.211 131.484 399.477 131.469ZM410.844 144.781H396.242V138.547H399.219V142.391H410.844V144.781ZM437.398 134.516H434.422V130.789H430.578V128.375H434.422V123.828H437.398V134.516ZM430.32 124.602C430.32 130.055 427.109 133.547 420.688 135.078L419.703 132.711C421.961 132.211 423.699 131.473 424.918 130.496C426.145 129.512 426.871 128.352 427.098 127.016H420.875V124.602H430.32ZM437.398 141.172H426.242V142.578H437.867V144.945H423.242V138.969H434.398V137.68H423.219V135.336H437.398V141.172ZM465.148 134.656H456.898V136.016H462.781V141.477H450.898V142.766H463.344V145.016H447.969V139.367H459.828V138.266H447.945V136.016H453.898V134.656H445.695V132.289H465.148V134.656ZM462.688 131.164H448.109V124.438H462.688V131.164ZM451.039 128.867H459.711V126.758H451.039V128.867ZM472.32 125.328C473.273 125.328 474.137 125.582 474.91 126.09C475.684 126.59 476.316 127.309 476.809 128.246C477.309 129.176 477.629 130.273 477.77 131.539H481.484V123.828H484.438V145.203H481.484V133.93H477.805C477.703 135.281 477.406 136.457 476.914 137.457C476.422 138.449 475.781 139.211 474.992 139.742C474.203 140.273 473.312 140.539 472.32 140.539C471.242 140.539 470.281 140.23 469.438 139.613C468.602 138.988 467.949 138.102 467.48 136.953C467.012 135.797 466.781 134.453 466.789 132.922C466.781 131.398 467.012 130.066 467.48 128.926C467.949 127.777 468.602 126.891 469.438 126.266C470.281 125.641 471.242 125.328 472.32 125.328ZM472.32 128.023C471.789 128.023 471.32 128.215 470.914 128.598C470.508 128.973 470.191 129.531 469.965 130.273C469.746 131.008 469.641 131.891 469.648 132.922C469.641 133.961 469.746 134.848 469.965 135.582C470.191 136.316 470.504 136.875 470.902 137.258C471.309 137.633 471.781 137.82 472.32 137.82C472.859 137.82 473.328 137.633 473.727 137.258C474.133 136.883 474.445 136.328 474.664 135.594C474.883 134.859 474.992 133.969 474.992 132.922C474.992 131.883 474.883 130.996 474.664 130.262C474.445 129.527 474.133 128.973 473.727 128.598C473.328 128.215 472.859 128.023 472.32 128.023ZM506.703 142.672H487.18V140.234H495.406V136.297H489.242V125.188H492.242V128.492H501.547V125.188H504.523V136.297H498.383V140.234H506.703V142.672ZM501.547 133.906V130.883H492.242V133.906H501.547ZM514.766 129.195C514.766 131.102 515.07 132.84 515.68 134.41C516.289 135.98 517.273 137.203 518.633 138.078L517.016 140.398C515.297 139.359 514.066 137.652 513.324 135.277C512.926 136.527 512.398 137.633 511.742 138.594C511.086 139.547 510.289 140.305 509.352 140.867L507.523 138.664C509.016 137.734 510.109 136.441 510.805 134.785C511.508 133.121 511.859 131.305 511.859 129.336V125.656H514.766V129.195ZM526.414 145.156H523.555V123.828H526.414V145.156ZM521.938 144.172H519.148V133.461H516.383V131.023H519.148V124.133H521.938V144.172ZM548.188 142.672H528.664V140.211H533.023V134.996C532.18 134.488 531.527 133.863 531.066 133.121C530.605 132.371 530.375 131.531 530.375 130.602C530.375 129.469 530.719 128.469 531.406 127.602C532.094 126.734 533.043 126.062 534.254 125.586C535.473 125.102 536.852 124.859 538.391 124.859C539.922 124.859 541.293 125.102 542.504 125.586C543.723 126.062 544.68 126.734 545.375 127.602C546.07 128.469 546.422 129.469 546.43 130.602C546.422 131.508 546.191 132.332 545.738 133.074C545.293 133.809 544.664 134.43 543.852 134.938V140.211H548.188V142.672ZM538.391 127.227C537.375 127.227 536.484 127.359 535.719 127.625C534.961 127.891 534.371 128.277 533.949 128.785C533.535 129.285 533.328 129.891 533.328 130.602C533.328 131.289 533.535 131.887 533.949 132.395C534.371 132.902 534.965 133.293 535.73 133.566C536.496 133.84 537.383 133.977 538.391 133.977C539.391 133.977 540.273 133.84 541.039 133.566C541.805 133.293 542.398 132.902 542.82 132.395C543.25 131.887 543.469 131.289 543.477 130.602C543.469 129.898 543.254 129.293 542.832 128.785C542.41 128.277 541.816 127.891 541.051 127.625C540.285 127.359 539.398 127.227 538.391 127.227ZM540.828 140.211V136.074C540.023 136.223 539.211 136.297 538.391 136.297C537.516 136.297 536.711 136.223 535.977 136.074V140.211H540.828Z" fill="white"/>
<g opacity="0.9">
<g opacity="0.9">
<circle cx="29.5" cy="317.5" r="27.5" fill="url(#paint1_linear_1038_318)"/>
</g>
</g>
<path opacity="0.9" d="M33.0909 304.048C34.0484 304.048 34.989 304.3 35.8181 304.779C36.6473 305.258 37.3359 305.946 37.8146 306.775C38.2933 307.605 38.5453 308.545 38.5453 309.503C38.5453 310.46 38.2933 311.401 37.8145 312.23H44V314.957H41.2727V328.593C41.2727 328.955 41.1291 329.302 40.8733 329.558C40.6176 329.813 40.2707 329.957 39.9091 329.957H18.0909C17.7293 329.957 17.3824 329.813 17.1267 329.558C16.8709 329.302 16.7273 328.955 16.7273 328.593V314.957H14V312.23H20.1841C19.5059 311.058 19.2878 309.676 19.572 308.352C19.8562 307.029 20.6224 305.858 21.7218 305.068C22.8212 304.278 24.1751 303.925 25.5202 304.078C26.8654 304.231 28.1057 304.878 29 305.894C29.5106 305.313 30.1397 304.847 30.845 304.529C31.5504 304.21 32.3157 304.046 33.0895 304.048M27.635 314.957H19.4532V327.23H27.635V314.957ZM38.5441 314.957H30.3623V327.23H38.5441V314.957ZM24.9077 306.775C24.2032 306.777 23.5267 307.051 23.0199 307.54C22.5131 308.03 22.2153 308.696 22.1888 309.4C22.1624 310.104 22.4094 310.791 22.8781 311.317C23.3468 311.843 24.0008 312.167 24.7032 312.222L24.9077 312.23H27.635V309.503C27.635 308.851 27.4017 308.221 26.9772 307.726C26.5527 307.232 25.9651 306.905 25.3209 306.807L25.1109 306.782L24.9077 306.775ZM33.0895 306.775C32.4015 306.775 31.7388 307.035 31.2343 307.503C30.7297 307.971 30.4207 308.612 30.3691 309.298L30.3623 309.503V312.23H33.0895C33.7774 312.23 34.4397 311.97 34.944 311.502C35.4482 311.034 35.757 310.393 35.8086 309.707L35.8168 309.503C35.8168 308.779 35.5295 308.086 35.018 307.574C34.5066 307.063 33.8129 306.775 33.0895 306.775Z" fill="#4330B1"/>
<path d="M100.125 293.828V315.156H97.2422V293.828H100.125ZM95.6016 294.203V314.195H92.8125V304.047H88.9922V301.609H92.8125V294.203H95.6016ZM90.4453 296.242V298.633H85.2188V307.914C87.5039 307.902 89.2266 307.785 91.2188 307.375L91.4531 309.812C89.0391 310.305 86.8828 310.398 83.7656 310.398H82.2891V296.242H90.4453ZM120.234 293.828V315.203H117.211V293.828H120.234ZM108.656 295.328C111.867 295.328 114.258 298.281 114.258 302.922C114.258 307.609 111.867 310.539 108.656 310.539C105.375 310.539 102.984 307.609 103.008 302.922C102.984 298.281 105.375 295.328 108.656 295.328ZM108.656 298.023C106.992 298.023 105.891 299.758 105.891 302.922C105.891 306.109 106.992 307.82 108.656 307.82C110.273 307.82 111.375 306.109 111.375 302.922C111.375 299.758 110.273 298.023 108.656 298.023ZM141.117 293.828V315.203H138.164V303.766H134.414V301.352H138.164V293.828H141.117ZM134.062 295.609V298.023H127.078V301.562H133.289V303.906H127.078V307.938C130.031 307.914 132.398 307.809 135.047 307.398L135.352 309.789C132.234 310.258 129.445 310.375 125.789 310.375H124.102V295.609H134.062ZM148.359 311.266L146.344 317.945H143.859L145.031 311.266H148.359ZM174.961 304.82V307.164H155.461V304.82H163.711V303.508H157.898V294.344H172.688V296.641H160.898V297.836H172.195V299.992H160.898V301.211H172.875V303.508H166.711V304.82H174.961ZM165.211 308.148C169.922 308.125 172.617 309.391 172.641 311.641C172.617 313.938 169.922 315.156 165.211 315.156C160.43 315.156 157.734 313.938 157.734 311.641C157.734 309.391 160.43 308.125 165.211 308.148ZM165.211 310.352C162.141 310.352 160.711 310.75 160.734 311.641C160.711 312.555 162.141 312.953 165.211 312.953C168.211 312.953 169.617 312.555 169.641 311.641C169.617 310.75 168.211 310.352 165.211 310.352ZM193.312 293.828V302.5H196.102V304.984H193.312V315.156H190.289V293.828H193.312ZM175.992 309.133C177.551 309.133 179.367 309.133 181.266 309.086V307.258C178.992 306.812 177.516 305.371 177.539 303.391C177.516 301 179.672 299.383 182.789 299.383C185.836 299.383 188.016 301 188.039 303.391C188.016 305.371 186.516 306.824 184.266 307.258V308.969C185.953 308.887 187.652 308.746 189.234 308.523L189.422 310.703C184.875 311.547 180 311.57 176.391 311.57L175.992 309.133ZM189.07 296.195V298.539H176.414V296.195H181.266V293.945H184.266V296.195H189.07ZM182.789 301.656C181.336 301.656 180.352 302.289 180.375 303.391C180.352 304.516 181.336 305.125 182.789 305.125C184.195 305.125 185.156 304.516 185.156 303.391C185.156 302.289 184.195 301.656 182.789 301.656ZM201.492 311.266L199.477 317.945H196.992L198.164 311.266H201.492ZM226.617 293.828V304.562H223.641V302.922H218.766V300.648H223.641V298.773H219C217.676 301.984 214.629 304.035 209.906 305.055L208.898 302.617C213.785 301.645 216.047 299.629 216.445 297.062H210.094V294.648H219.75C219.75 295.293 219.703 295.914 219.609 296.5H223.641V293.828H226.617ZM226.617 305.336V311.172H215.461V312.578H227.086V314.945H212.461V308.969H223.617V307.68H212.438V305.336H226.617ZM246.305 293.828V298.961H249.188V301.445H246.305V306.32H243.305V293.828H246.305ZM235.312 307.141V308.758H243.305V307.141H246.305V314.922H232.336V307.141H235.312ZM235.312 312.578H243.305V311.055H235.312V312.578ZM242.039 295.703V298.047H229.383V295.703H234.234V293.688H237.211V295.703H242.039ZM235.711 298.656C238.805 298.656 240.961 300.156 240.961 302.43C240.961 304.703 238.805 306.203 235.711 306.203C232.57 306.203 230.414 304.703 230.414 302.43C230.414 300.156 232.57 298.656 235.711 298.656ZM235.711 300.859C234.281 300.836 233.32 301.422 233.344 302.43C233.32 303.461 234.281 304.023 235.711 304.023C237.141 304.023 238.125 303.461 238.125 302.43C238.125 301.422 237.141 300.836 235.711 300.859ZM267.211 293.828V302.195H270.047V304.656H267.211V315.156H264.211V293.828H267.211ZM256.5 296.008C256.477 301.867 255.867 306.438 252.047 310.633L249.703 308.969C252.609 305.828 253.453 302.699 253.641 298.445H250.641V296.008H256.5ZM262.406 296.008C262.406 302.102 261.867 307.375 258.094 312.016L255.727 310.352C258.621 306.789 259.406 303.133 259.594 298.445H257.203V296.008H262.406ZM279.141 299.641C279.141 303.086 280.898 306.766 284.484 308.266L282.867 310.609C280.348 309.543 278.613 307.422 277.664 304.82C276.691 307.645 274.922 309.988 272.414 311.148L270.703 308.781C274.242 307.211 276.07 303.25 276.07 299.641V298.328H271.547V295.891H283.594V298.328H279.141V299.641ZM288.727 293.828V315.156H285.703V293.828H288.727ZM314.062 293.852V300.391H316.945V302.828H314.062V309.766H311.062V293.852H314.062ZM309.797 296.078V298.445H297.141V296.078H301.992V293.805H304.969V296.078H309.797ZM303.469 299.195C306.562 299.195 308.719 300.859 308.719 303.32C308.719 305.781 306.562 307.398 303.469 307.398C300.352 307.398 298.172 305.781 298.172 303.32C298.172 300.859 300.352 299.195 303.469 299.195ZM303.469 301.469C302.039 301.492 301.078 302.148 301.102 303.32C301.078 304.492 302.039 305.125 303.469 305.125C304.898 305.125 305.883 304.492 305.883 303.32C305.883 302.148 304.898 301.492 303.469 301.469ZM314.836 312.391V314.781H300.234V308.547H303.211V312.391H314.836ZM341.391 293.852V309.578H338.414V301.891H334.477V306.203H324.328V295.234H327.328V298.516H331.523V295.234H334.477V299.5H338.414V293.852H341.391ZM341.836 312.391V314.781H327.188V308.008H330.211V312.391H341.836ZM327.328 303.859H331.523V300.789H327.328V303.859ZM362.648 293.828V315.156H359.789V293.828H362.648ZM358.195 294.133V314.172H355.383V304.094H353.672C353.391 308.289 351.609 310.82 348.984 310.82C346.172 310.82 344.344 307.867 344.344 303.062C344.344 298.281 346.172 295.352 348.984 295.352C351.551 295.352 353.309 297.742 353.648 301.727H355.383V294.133H358.195ZM348.984 298.164C347.789 298.164 347.086 299.805 347.109 303.062C347.086 306.344 347.789 307.961 348.984 307.938C350.203 307.961 350.93 306.344 350.93 303.062C350.93 299.805 350.203 298.164 348.984 298.164ZM369.75 296.031L369.445 307.914H366.445L366.141 296.031H369.75ZM367.969 313.211C366.867 313.211 365.977 312.32 366 311.242C365.977 310.164 366.867 309.297 367.969 309.297C369 309.297 369.914 310.164 369.914 311.242C369.914 312.32 369 313.211 367.969 313.211Z" fill="white"/>
<path d="M92.5137 328.273V341H91.002L84.1113 331.086H83.9883V341H82.4062V328.273H83.9355L90.8262 338.205H90.9492V328.273H92.5137ZM106.084 334.637C106.084 338.662 103.711 341.176 100.459 341.176C97.1895 341.176 94.834 338.662 94.834 334.637C94.834 330.611 97.1895 328.098 100.459 328.098C103.711 328.098 106.084 330.611 106.084 334.637ZM104.555 334.637C104.555 331.35 102.762 329.574 100.459 329.574C98.1562 329.574 96.3633 331.35 96.3633 334.637C96.3633 337.924 98.1562 339.699 100.459 339.699C102.762 339.699 104.555 337.924 104.555 334.637ZM108.352 341H106.699L111.357 328.273H113.027L117.686 341H116.016L114.75 337.414H109.635L108.352 341ZM110.109 336.025H114.258L112.236 330.33H112.131L110.109 336.025ZM130.729 326.797V333.16H133.26V334.32H130.729V342.424H129.357V326.797H130.729ZM126.686 328.484C126.686 332.914 124.611 336.939 119.514 339.453L118.74 338.363C122.783 336.351 124.98 333.345 125.297 329.645H119.461V328.484H126.686ZM150.943 326.797V330.875H153.281V332.035H150.943V336.131H149.555V326.797H150.943ZM145.916 336.43C149.098 336.43 151.066 337.537 151.066 339.4C151.066 341.299 149.098 342.389 145.916 342.389C142.717 342.389 140.73 341.299 140.73 339.4C140.73 337.537 142.717 336.43 145.916 336.43ZM145.916 337.572C143.561 337.555 142.084 338.258 142.084 339.4C142.084 340.561 143.561 341.281 145.916 341.281C148.254 341.281 149.73 340.561 149.73 339.4C149.73 338.258 148.254 337.555 145.916 337.572ZM146.373 327.992V329.135H140.783V333.723C143.947 333.705 145.775 333.608 147.867 333.178L148.008 334.32C145.828 334.76 143.947 334.848 140.643 334.848H139.43V327.992H146.373ZM167.168 326.814V338.275H165.797V326.814H167.168ZM167.66 340.93V342.09H157.078V337.221H158.449V340.93H167.66ZM159.803 329.258C159.785 331.631 161.42 333.775 163.74 334.619L163.02 335.727C161.209 335.032 159.803 333.626 159.117 331.824C158.423 333.74 156.999 335.278 155.18 336.008L154.424 334.936C156.797 334.021 158.396 331.719 158.396 329.258V327.693H159.803V329.258ZM183.217 326.797V342.424H181.881V326.797H183.217ZM180.07 327.131V341.633H178.752V334.039H176.748C176.599 337.08 175.307 338.979 173.373 338.979C171.334 338.979 170.016 336.869 170.016 333.547C170.016 330.225 171.334 328.115 173.373 328.115C175.271 328.115 176.555 329.952 176.73 332.896H178.752V327.131H180.07ZM173.373 329.416C172.107 329.416 171.299 330.998 171.316 333.547C171.299 336.078 172.107 337.678 173.373 337.66C174.639 337.678 175.447 336.078 175.447 333.547C175.447 330.998 174.639 329.416 173.373 329.416ZM198.756 326.797V342.424H197.438V326.797H198.756ZM195.469 327.219V341.633H194.15V334.338H190.846C189.888 336.157 188.385 337.766 186.205 339.049L185.396 338.047C188.798 336.034 190.503 333.213 190.758 329.943H186.064V328.801H192.129C192.12 330.339 191.874 331.824 191.355 333.213H194.15V327.219H195.469ZM217.951 326.797V330.998H220.025V332.176H217.951V336.166H216.562V326.797H217.951ZM217.951 336.904V342.459H216.562V338.012H207.562V336.904H217.951ZM209.953 328.045V329.17H207.369V333.793C208.178 333.775 209.162 333.688 210.234 333.441L210.375 334.619C208.898 334.936 207.686 334.953 206.736 334.953H206.051V328.045H209.953ZM215.051 328.045V329.17H212.221V333.811C213.469 333.793 214.436 333.705 215.596 333.441L215.754 334.602C214.348 334.9 213.258 334.953 211.676 334.953H210.902V328.045H215.051ZM233.42 327.869V334.549H226.195V327.869H233.42ZM227.549 328.994V333.424H232.084V328.994H227.549ZM237.744 326.797V330.559H240.1V331.719H237.744V335.727H236.373V326.797H237.744ZM238.025 336.641V337.766H233.596C233.745 339.436 236.074 340.895 238.623 341.299L238.113 342.371C235.828 341.993 233.754 340.859 232.857 339.295C231.97 340.868 229.913 341.984 227.637 342.354L227.109 341.299C229.693 340.895 231.979 339.462 232.154 337.766H227.725V336.641H238.025ZM253.723 331.543V332.65H243.018V327.377H244.389V331.543H253.723ZM255.375 334.777V335.902H241.066V334.777H255.375ZM253.811 340.895V342.037H242.93V337.502H244.301V340.895H253.811ZM275.467 339.26V340.42H261.158V339.26H264.709V335.041C263.373 334.347 262.564 333.222 262.564 331.807C262.564 329.381 264.938 327.799 268.277 327.781C271.617 327.799 273.99 329.381 273.99 331.807C273.99 333.195 273.208 334.312 271.916 335.006V339.26H275.467ZM268.277 328.924C265.711 328.906 263.9 330.066 263.9 331.807C263.9 333.547 265.711 334.725 268.277 334.725C270.826 334.725 272.654 333.547 272.654 331.807C272.654 330.066 270.826 328.906 268.277 328.924ZM266.062 339.26H270.527V335.533C269.851 335.718 269.095 335.814 268.277 335.814C267.478 335.814 266.73 335.727 266.062 335.551V339.26ZM289.143 327.641V328.801C289.143 330.014 289.143 331.438 288.738 333.389H291.023V334.531H276.715V333.389H287.35C287.771 331.429 287.771 330.014 287.771 328.801V328.783H278.525V327.641H289.143ZM289.213 336.693V342.213H278.473V336.693H289.213ZM279.844 337.783V341.088H287.842V337.783H279.844ZM305.631 326.797V342.424H304.312V326.797H305.631ZM302.467 327.184V341.615H301.166V333.564H298.529V332.439H301.166V327.184H302.467ZM296.859 331.262C296.859 333.969 298.072 336.658 300.234 337.906L299.391 338.926C297.853 338.003 296.763 336.315 296.227 334.32C295.655 336.474 294.521 338.311 292.957 339.295L292.078 338.258C294.258 336.957 295.523 334.109 295.523 331.262V329.785H292.518V328.643H299.725V329.785H296.859V331.262ZM322.119 334.057V335.146H307.811V334.057H322.119ZM320.326 336.395V339.717H310.939V341.211H320.836V342.213H309.551V338.768H318.955V337.432H309.533V336.395H320.326ZM320.273 327.271V330.506H311.045V331.877H320.555V332.879H309.674V329.557H318.885V328.273H309.621V327.271H320.273ZM342.141 336.254V337.414H335.689V342.459H334.336V337.414H327.902V336.254H342.141ZM335.707 329.891C335.707 331.842 338.432 333.547 341.227 333.934L340.717 335.041C338.3 334.672 336.023 333.459 335.039 331.754C334.037 333.477 331.726 334.672 329.309 335.041L328.799 333.934C331.576 333.547 334.336 331.859 334.336 329.891V329.873H329.291V328.748H334.336V326.797H335.689V328.748H340.77V329.873H335.707V329.891ZM348.785 330.541C348.785 332.615 350.438 334.443 352.758 335.164L352.072 336.271C350.262 335.683 348.838 334.443 348.135 332.844C347.458 334.558 346.043 335.885 344.197 336.535L343.512 335.463C345.814 334.689 347.432 332.738 347.432 330.541V330.031H343.898V328.906H347.432V326.902H348.82V328.906H352.318V330.031H348.785V330.541ZM356.414 326.814V338.486H355.025V332.773H351.773V331.631H355.025V326.814H356.414ZM356.854 340.93V342.09H346.377V337.432H347.766V340.93H356.854ZM366.82 329.504V330.629H358.98V329.504H362.232V327.271H363.604V329.504H366.82ZM362.9 331.684C364.869 331.684 366.275 333.16 366.293 335.234C366.275 337.326 364.869 338.82 362.9 338.82C360.949 338.82 359.543 337.326 359.543 335.234C359.543 333.16 360.949 331.684 362.9 331.684ZM362.9 332.844C361.67 332.861 360.773 333.863 360.773 335.234C360.773 336.623 361.67 337.625 362.9 337.607C364.148 337.625 365.062 336.623 365.062 335.234C365.062 333.863 364.148 332.861 362.9 332.844ZM372.322 326.797V342.424H371.004V334.531H368.93V341.65H367.629V327.184H368.93V333.389H371.004V326.797H372.322ZM387.193 334.32V335.463H376.4V328.256H387.035V329.398H377.771V334.32H387.193ZM388.881 339.137V340.297H374.572V339.137H388.881ZM403.066 326.797V342.459H401.695V335.797H398.443V334.637H401.695V331.525H398.566V330.365H401.695V326.797H403.066ZM397.547 328.221V333.775H392.098V337.625C394.444 337.616 396.387 337.528 398.76 337.168L398.883 338.328C396.387 338.715 394.383 338.803 391.887 338.803H390.727V332.65H396.193V329.363H390.674V328.221H397.547ZM419.994 339.26V340.42H405.686V339.26H409.236V335.041C407.9 334.347 407.092 333.222 407.092 331.807C407.092 329.381 409.465 327.799 412.805 327.781C416.145 327.799 418.518 329.381 418.518 331.807C418.518 333.195 417.735 334.312 416.443 335.006V339.26H419.994ZM412.805 328.924C410.238 328.906 408.428 330.066 408.428 331.807C408.428 333.547 410.238 334.725 412.805 334.725C415.354 334.725 417.182 333.547 417.182 331.807C417.182 330.066 415.354 328.906 412.805 328.924ZM410.59 339.26H415.055V335.533C414.378 335.718 413.622 335.814 412.805 335.814C412.005 335.814 411.258 335.727 410.59 335.551V339.26ZM422.895 341.105C422.279 341.105 421.752 340.596 421.77 339.963C421.752 339.348 422.279 338.838 422.895 338.838C423.51 338.838 424.02 339.348 424.02 339.963C424.02 340.596 423.51 341.105 422.895 341.105Z" fill="white"/>
<path d="M93.7266 414.797V420.984H96.3457V422.145H93.7266V430.459H92.3555V414.797H93.7266ZM89.6133 416.326V417.469H83.6895V425.379C86.5195 425.379 88.5234 425.247 90.8438 424.816L91.0195 426.012C88.5762 426.451 86.5195 426.539 83.5488 426.539H82.3184V416.326H89.6133ZM111.727 417.17V418.312H109.406V420.492H111.727V421.652H109.406V424.078H108.035V414.797H109.406V417.17H111.727ZM101.584 415.746C103.957 415.729 105.68 417.24 105.697 419.42C105.68 421.6 103.957 423.076 101.584 423.094C99.2109 423.076 97.4707 421.6 97.4883 419.42C97.4707 417.24 99.2109 415.729 101.584 415.746ZM101.584 416.924C100.002 416.906 98.8242 417.943 98.8418 419.42C98.8242 420.896 100.002 421.916 101.584 421.934C103.184 421.916 104.344 420.896 104.344 419.42C104.344 417.943 103.184 416.906 101.584 416.924ZM104.396 424.553C107.578 424.57 109.547 425.625 109.547 427.488C109.547 429.316 107.578 430.389 104.396 430.389C101.197 430.389 99.2109 429.316 99.2109 427.488C99.2109 425.625 101.197 424.57 104.396 424.553ZM104.396 425.678C102.041 425.678 100.582 426.346 100.6 427.488C100.582 428.613 102.041 429.281 104.396 429.281C106.77 429.281 108.211 428.613 108.211 427.488C108.211 426.346 106.77 425.678 104.396 425.678ZM124.963 414.814V419.965H127.318V421.125H124.963V426.521H123.592V414.814H124.963ZM122.098 416.73V417.855H112.781V416.73H116.754V414.814H118.125V416.73H122.098ZM117.439 418.717C119.672 418.717 121.184 419.859 121.201 421.635C121.184 423.393 119.672 424.518 117.439 424.518C115.189 424.518 113.66 423.393 113.678 421.635C113.66 419.859 115.189 418.717 117.439 418.717ZM117.439 419.807C115.963 419.807 114.979 420.527 114.996 421.635C114.979 422.742 115.963 423.445 117.439 423.428C118.898 423.445 119.883 422.742 119.9 421.635C119.883 420.527 118.898 419.807 117.439 419.807ZM125.684 428.93V430.09H115.189V425.59H116.543V428.93H125.684ZM147.129 427.26V428.42H132.82V427.26H136.371V423.041C135.035 422.347 134.227 421.222 134.227 419.807C134.227 417.381 136.6 415.799 139.939 415.781C143.279 415.799 145.652 417.381 145.652 419.807C145.652 421.195 144.87 422.312 143.578 423.006V427.26H147.129ZM139.939 416.924C137.373 416.906 135.562 418.066 135.562 419.807C135.562 421.547 137.373 422.725 139.939 422.725C142.488 422.725 144.316 421.547 144.316 419.807C144.316 418.066 142.488 416.906 139.939 416.924ZM137.725 427.26H142.189V423.533C141.513 423.718 140.757 423.814 139.939 423.814C139.14 423.814 138.393 423.727 137.725 423.551V427.26ZM160.805 415.641V416.801C160.805 418.014 160.805 419.438 160.4 421.389H162.686V422.531H148.377V421.389H159.012C159.434 419.429 159.434 418.014 159.434 416.801V416.783H150.188V415.641H160.805ZM160.875 424.693V430.213H150.135V424.693H160.875ZM151.506 425.783V429.088H159.504V425.783H151.506ZM177.293 414.797V430.424H175.975V414.797H177.293ZM174.129 415.184V429.615H172.828V421.564H170.191V420.439H172.828V415.184H174.129ZM168.521 419.262C168.521 421.969 169.734 424.658 171.896 425.906L171.053 426.926C169.515 426.003 168.425 424.315 167.889 422.32C167.317 424.474 166.184 426.311 164.619 427.295L163.74 426.258C165.92 424.957 167.186 422.109 167.186 419.262V417.785H164.18V416.643H171.387V417.785H168.521V419.262ZM193.781 422.057V423.146H179.473V422.057H193.781ZM191.988 424.395V427.717H182.602V429.211H192.498V430.213H181.213V426.768H190.617V425.432H181.195V424.395H191.988ZM191.936 415.271V418.506H182.707V419.877H192.217V420.879H181.336V417.557H190.547V416.273H181.283V415.271H191.936ZM211.781 414.814V419.965H214.137V421.125H211.781V426.521H210.41V414.814H211.781ZM208.916 416.73V417.855H199.6V416.73H203.572V414.814H204.943V416.73H208.916ZM204.258 418.717C206.49 418.717 208.002 419.859 208.02 421.635C208.002 423.393 206.49 424.518 204.258 424.518C202.008 424.518 200.479 423.393 200.496 421.635C200.479 419.859 202.008 418.717 204.258 418.717ZM204.258 419.807C202.781 419.807 201.797 420.527 201.814 421.635C201.797 422.742 202.781 423.445 204.258 423.428C205.717 423.445 206.701 422.742 206.719 421.635C206.701 420.527 205.717 419.807 204.258 419.807ZM212.502 428.93V430.09H202.008V425.59H203.361V428.93H212.502ZM227.76 419.561V420.686H217.09V415.395H218.461V419.561H227.76ZM229.377 422.531V423.674H223.049V426.908H221.678V423.674H215.121V422.531H229.377ZM227.865 428.93V430.09H216.949V425.52H218.32V428.93H227.865ZM244.072 414.797V430.424H242.736V414.797H244.072ZM240.926 415.131V429.633H239.607V422.039H237.604C237.454 425.08 236.162 426.979 234.229 426.979C232.189 426.979 230.871 424.869 230.871 421.547C230.871 418.225 232.189 416.115 234.229 416.115C236.127 416.115 237.41 417.952 237.586 420.896H239.607V415.131H240.926ZM234.229 417.416C232.963 417.416 232.154 418.998 232.172 421.547C232.154 424.078 232.963 425.678 234.229 425.66C235.494 425.678 236.303 424.078 236.303 421.547C236.303 418.998 235.494 417.416 234.229 417.416ZM262.951 414.814V419.543H265.289V420.703H262.951V425.291H261.562V414.814H262.951ZM250.682 423.691C251.93 423.691 253.389 423.691 254.918 423.639V422.496C253.099 422.338 251.93 421.485 251.93 420.193C251.93 418.77 253.389 417.891 255.586 417.891C257.801 417.891 259.242 418.77 259.26 420.193C259.242 421.477 258.1 422.329 256.289 422.496V423.586C257.748 423.516 259.225 423.401 260.596 423.199L260.719 424.201C257.326 424.799 253.582 424.816 250.84 424.816L250.682 423.691ZM262.951 426.064V430.424H261.562V427.172H252.598V426.064H262.951ZM260.121 416.238V417.293H251.068V416.238H254.918V414.674H256.289V416.238H260.121ZM255.586 418.875C254.145 418.857 253.248 419.367 253.248 420.193C253.248 421.002 254.145 421.564 255.586 421.547C257.027 421.564 257.941 421.002 257.941 420.193C257.941 419.367 257.027 418.857 255.586 418.875ZM279.211 414.814V426.24H277.84V414.814H279.211ZM279.703 428.93V430.09H269.121V425.08H270.492V428.93H279.703ZM270.773 415.904C273.111 415.904 274.869 417.486 274.869 419.736C274.869 422.021 273.111 423.586 270.773 423.586C268.436 423.586 266.678 422.021 266.678 419.736C266.678 417.486 268.436 415.904 270.773 415.904ZM270.773 417.117C269.191 417.117 268.014 418.207 268.031 419.736C268.014 421.301 269.191 422.373 270.773 422.373C272.32 422.373 273.516 421.301 273.516 419.736C273.516 418.207 272.32 417.117 270.773 417.117ZM294.082 414.744V418.541H296.455V419.684H294.082V423.393H292.711V414.744H294.082ZM294.082 424.201V427.664H285.504V429.193H294.662V430.248H284.15V426.645H292.711V425.238H284.115V424.201H294.082ZM291.217 416.221V417.328H281.9V416.221H285.873V414.639H287.244V416.221H291.217ZM286.559 418.031C288.826 418.031 290.303 419.016 290.32 420.598C290.303 422.18 288.826 423.164 286.559 423.164C284.273 423.164 282.779 422.18 282.797 420.598C282.779 419.016 284.273 418.031 286.559 418.031ZM286.559 419.051C285.082 419.051 284.098 419.666 284.115 420.598C284.098 421.547 285.082 422.127 286.559 422.127C288.035 422.127 289.002 421.547 289.02 420.598C289.002 419.666 288.035 419.051 286.559 419.051ZM309.779 416.256C309.779 418.453 312.662 420.369 315.475 420.756L314.912 421.881C312.486 421.477 310.087 420.132 309.076 418.207C308.074 420.141 305.666 421.477 303.24 421.881L302.678 420.756C305.49 420.369 308.355 418.488 308.355 416.256V415.359H309.779V416.256ZM316.178 423.604V424.764H309.709V430.424H308.355V424.764H301.939V423.604H316.178ZM327.305 425.291C327.305 426.671 328.043 428.139 329.537 428.982C331.014 428.06 331.805 426.504 331.805 425.291V424.43H333.158V425.291C333.158 426.891 334.336 428.508 336.34 429.193L335.654 430.213C334.09 429.659 332.991 428.569 332.455 427.26C331.972 428.525 331.014 429.721 329.572 430.336C328.052 429.756 327.085 428.604 326.619 427.295C326.065 428.561 324.984 429.65 323.49 430.213L322.787 429.193C324.756 428.455 325.951 426.785 325.969 425.291V424.43H327.305V425.291ZM334.916 414.814V423.744H333.545V414.814H334.916ZM326.479 415.729C328.852 415.729 330.574 417.205 330.574 419.385C330.574 421.529 328.852 423.006 326.479 423.006C324.105 423.006 322.383 421.529 322.383 419.385C322.383 417.205 324.105 415.729 326.479 415.729ZM326.479 416.906C324.879 416.889 323.719 417.926 323.736 419.385C323.719 420.826 324.879 421.846 326.479 421.863C328.061 421.846 329.221 420.826 329.221 419.385C329.221 417.926 328.061 416.889 326.479 416.906ZM341.771 416.01C343.898 416.027 345.428 417.847 345.656 420.773H349.154V414.797H350.525V430.459H349.154V421.916H345.674C345.507 424.975 343.951 426.891 341.771 426.891C339.469 426.891 337.852 424.781 337.852 421.459C337.852 418.137 339.469 416.027 341.771 416.01ZM341.771 417.24C340.225 417.258 339.17 418.91 339.17 421.459C339.17 424.008 340.225 425.66 341.771 425.66C343.301 425.66 344.373 424.008 344.373 421.459C344.373 418.91 343.301 417.258 341.771 417.24ZM367.436 427.26V428.42H353.127V427.26H356.678V423.041C355.342 422.347 354.533 421.222 354.533 419.807C354.533 417.381 356.906 415.799 360.246 415.781C363.586 415.799 365.959 417.381 365.959 419.807C365.959 421.195 365.177 422.312 363.885 423.006V427.26H367.436ZM360.246 416.924C357.68 416.906 355.869 418.066 355.869 419.807C355.869 421.547 357.68 422.725 360.246 422.725C362.795 422.725 364.623 421.547 364.623 419.807C364.623 418.066 362.795 416.906 360.246 416.924ZM358.031 427.26H362.496V423.533C361.819 423.718 361.063 423.814 360.246 423.814C359.446 423.814 358.699 423.727 358.031 423.551V427.26ZM370.336 429.105C369.721 429.105 369.193 428.596 369.211 427.963C369.193 427.348 369.721 426.838 370.336 426.838C370.951 426.838 371.461 427.348 371.461 427.963C371.461 428.596 370.951 429.105 370.336 429.105Z" fill="white"/>
<path d="M99.4922 381.828V394.672H96.4922V381.828H99.4922ZM99.4922 395.609V403.156H96.4922V398H84.8203V395.609H99.4922ZM94.2422 383.07V385.461H89.9531C89.9766 387.957 91.5469 390.582 95.0391 391.625L93.5156 393.945C91.125 393.207 89.4375 391.672 88.4766 389.727C87.5039 391.836 85.7695 393.512 83.2734 394.344L81.7266 392.023C85.2422 390.887 86.8828 388.121 86.9062 385.461H82.5234V383.07H94.2422ZM120.352 381.828V393.5H117.375V389.047H114V386.609H117.375V381.828H120.352ZM109.078 394.32V396.336H117.375V394.32H120.352V402.922H106.125V394.32H109.078ZM109.078 400.531H117.375V398.633H109.078V400.531ZM114.68 382.789V385.227H110.461C110.578 387.605 112.102 390.078 115.336 391.133L113.859 393.43C111.492 392.645 109.863 391.121 108.938 389.188C108 391.332 106.301 393.055 103.781 393.875L102.258 391.531C105.609 390.418 107.215 387.828 107.391 385.227H103.102V382.789H114.68ZM146.508 381.828V403.203H143.484V381.828H146.508ZM132.703 383.516V388.719H137.297V383.516H140.25V398.211H129.703V383.516H132.703ZM132.703 395.797H137.297V391.039H132.703V395.797ZM167.086 383.68V385.766C167.062 388.367 167.062 391.297 166.289 395.586L163.359 395.328C164.062 391.426 164.086 388.52 164.086 386.047H151.312V383.68H167.086ZM168.844 398.117V400.555H149.391V398.117H153.539V391.414H156.516V398.117H158.859V391.414H161.812V398.117H168.844ZM186.961 381.828V390.172H190.102V392.633H186.961V403.156H184.008V381.828H186.961ZM182.555 385.016V387.406H170.016V385.016H174.844V382.156H177.844V385.016H182.555ZM176.344 388.602C179.461 388.602 181.781 390.711 181.781 393.688C181.781 396.664 179.461 398.773 176.344 398.773C173.203 398.773 170.883 396.664 170.883 393.688C170.883 390.711 173.203 388.602 176.344 388.602ZM176.344 391.016C174.844 391.039 173.742 392.047 173.742 393.688C173.742 395.352 174.844 396.336 176.344 396.312C177.844 396.336 178.922 395.352 178.922 393.688C178.922 392.047 177.844 391.039 176.344 391.016ZM199.148 387.641C199.148 391.086 200.906 394.766 204.492 396.266L202.875 398.609C200.355 397.543 198.621 395.422 197.672 392.82C196.699 395.645 194.93 397.988 192.422 399.148L190.711 396.781C194.25 395.211 196.078 391.25 196.078 387.641V386.328H191.555V383.891H203.602V386.328H199.148V387.641ZM208.734 381.828V403.156H205.711V381.828H208.734ZM223.031 382.859C226.312 382.859 228.75 384.945 228.75 387.828C228.75 390.758 226.312 392.82 223.031 392.82C219.773 392.82 217.289 390.758 217.289 387.828C217.289 384.945 219.773 382.859 223.031 382.859ZM223.031 385.32C221.414 385.297 220.195 386.281 220.219 387.828C220.195 389.398 221.414 390.383 223.031 390.383C224.648 390.383 225.844 389.398 225.844 387.828C225.844 386.281 224.648 385.297 223.031 385.32ZM234.07 381.828V386.258H236.953V388.719H234.07V392.352H231.07V381.828H234.07ZM221.977 394.414V400.156C223.16 400.086 224.273 399.91 225.375 399.547L225.797 401.867C223.992 402.523 222.281 402.594 220.242 402.594H219.07V394.414H221.977ZM235.805 394.438V396.641H225.07V394.438H229.008V392.938H231.914V394.438H235.805ZM230.414 397.133C232.852 397.133 234.562 398.328 234.562 400.156C234.562 402.008 232.852 403.156 230.414 403.156C227.953 403.156 226.289 402.008 226.312 400.156C226.289 398.328 227.953 397.133 230.414 397.133ZM230.414 399.195C229.57 399.219 228.938 399.547 228.961 400.156C228.938 400.789 229.57 401.117 230.414 401.117C231.258 401.117 231.891 400.789 231.891 400.156C231.891 399.547 231.258 399.219 230.414 399.195ZM243.633 383.328C246.891 383.328 249.234 386.281 249.258 390.922C249.234 395.609 246.891 398.539 243.633 398.539C240.375 398.539 237.984 395.609 238.008 390.922C237.984 386.281 240.375 383.328 243.633 383.328ZM243.633 386.023C241.992 386.023 240.891 387.758 240.891 390.922C240.891 394.109 241.992 395.82 243.633 395.82C245.297 395.82 246.375 394.109 246.398 390.922C246.375 387.758 245.297 386.023 243.633 386.023ZM254.719 381.828V389.867H257.859V392.352H254.719V403.156H251.719V381.828H254.719ZM276.023 391.367V393.734H269.836V398.281H278.156V400.719H258.633V398.281H266.859V393.734H260.93V383.328H275.859V385.719H263.93V391.367H276.023ZM284.625 396.523C285.832 396.523 287.309 396.512 288.867 396.477V392.891H285.562V383.75H294.75V386.164H288.492V390.5H294.938V392.891H291.727V396.359C293.027 396.312 294.305 396.219 295.43 396.078L295.594 398.211C292.148 398.867 287.766 398.961 285.023 398.961L284.625 396.523ZM303.609 381.828V403.156H300.75V392.727H299.086V402.172H296.297V382.18H299.086V390.312H300.75V381.828H303.609ZM325.172 398.211V400.672H305.648V398.211H310.008V392.984C308.355 392 307.359 390.488 307.359 388.602C307.359 385.156 310.734 382.859 315.375 382.859C319.992 382.859 323.391 385.156 323.414 388.602C323.402 390.441 322.43 391.941 320.836 392.938V398.211H325.172ZM315.375 385.227C312.328 385.227 310.312 386.445 310.312 388.602C310.312 390.688 312.328 391.977 315.375 391.977C318.398 391.977 320.438 390.688 320.461 388.602C320.438 386.445 318.398 385.227 315.375 385.227ZM312.961 398.211H317.812V394.062C317.051 394.215 316.23 394.297 315.375 394.297C314.52 394.297 313.711 394.227 312.961 394.062V398.211ZM329.156 401.211C328.055 401.211 327.164 400.32 327.188 399.242C327.164 398.164 328.055 397.297 329.156 397.297C330.188 397.297 331.102 398.164 331.102 399.242C331.102 400.32 330.188 401.211 329.156 401.211Z" fill="white"/>
<g opacity="0.9">
<circle cx="29.5" cy="405.5" r="27.5" fill="url(#paint2_linear_1038_318)"/>
</g>
<path d="M93.0605 244.482V245.484C93.0605 246.548 93.0605 247.884 92.709 249.65H94.9414V250.758H80.6328V249.65H91.3203C91.6719 247.91 91.6895 246.627 91.6895 245.607H82.4434V244.482H93.0605ZM93.1133 252.34V256.277H83.7441V258.123H93.5176V259.248H82.3555V255.188H91.7422V253.447H82.3379V252.34H93.1133ZM113.609 243.797V252.182H112.238V243.797H113.609ZM104.855 252.973V254.871H112.238V252.973H113.609V259.213H103.484V252.973H104.855ZM104.855 258.088H112.238V255.979H104.855V258.088ZM105.172 244.57C107.545 244.553 109.268 246.012 109.268 248.156C109.268 250.283 107.545 251.742 105.172 251.742C102.799 251.742 101.076 250.283 101.076 248.156C101.076 246.012 102.799 244.553 105.172 244.57ZM105.172 245.73C103.572 245.713 102.412 246.732 102.43 248.156C102.412 249.58 103.572 250.6 105.172 250.6C106.754 250.6 107.914 249.58 107.914 248.156C107.914 246.732 106.754 245.713 105.172 245.73ZM123.682 244.764V249.141H118.303V251.566C121.238 251.566 122.75 251.522 124.596 251.18L124.736 252.322C122.785 252.639 121.203 252.691 118.039 252.691H116.932V248.086H122.311V245.871H116.896V244.764H123.682ZM129.219 243.814V253.412H127.83V250.512H124.719V249.369H127.83V247.26H124.719V246.135H127.83V243.814H129.219ZM129.219 254.256V259.459H127.83V255.381H118.689V254.256H129.219ZM144.705 243.797V259.459H143.316V243.797H144.705ZM136.391 245.01C138.711 245.027 140.381 247.137 140.381 250.459C140.381 253.781 138.711 255.891 136.391 255.891C134.053 255.891 132.4 253.781 132.4 250.459C132.4 247.137 134.053 245.027 136.391 245.01ZM136.391 246.24C134.826 246.258 133.736 247.91 133.736 250.459C133.736 253.008 134.826 254.66 136.391 254.66C137.955 254.66 139.045 253.008 139.045 250.459C139.045 247.91 137.955 246.258 136.391 246.24ZM156.096 245.01C158.223 245.027 159.752 246.847 159.98 249.773H163.479V243.797H164.85V259.459H163.479V250.916H159.998C159.831 253.975 158.275 255.891 156.096 255.891C153.793 255.891 152.176 253.781 152.176 250.459C152.176 247.137 153.793 245.027 156.096 245.01ZM156.096 246.24C154.549 246.258 153.494 247.91 153.494 250.459C153.494 253.008 154.549 254.66 156.096 254.66C157.625 254.66 158.697 253.008 158.697 250.459C158.697 247.91 157.625 246.258 156.096 246.24ZM180.406 243.814V252.551H179.018V250.002H175.906V248.877H179.018V246.979H175.906V245.836H179.018V243.814H180.406ZM174.869 244.518V248.736H169.49V250.916C172.391 250.898 173.902 250.872 175.801 250.547L175.924 251.689C173.938 252.023 172.355 252.059 169.227 252.076H168.119V247.664H173.498V245.66H168.084V244.518H174.869ZM171.6 253.184V255.012H179.035V253.184H180.406V259.213H170.211V253.184H171.6ZM171.6 258.088H179.035V256.119H171.6V258.088ZM195.102 243.797V249.984H197.721V251.145H195.102V259.459H193.73V243.797H195.102ZM190.988 245.326V246.469H185.064V254.379C187.895 254.379 189.898 254.247 192.219 253.816L192.395 255.012C189.951 255.451 187.895 255.539 184.924 255.539H183.693V245.326H190.988ZM206.475 245.168V246.557H210.131V243.814H211.52V255.223H210.131V251.057H206.475V252.463H199.303V245.168H206.475ZM200.674 246.311V251.355H205.121V246.311H200.674ZM211.871 257.93V259.09H201.412V254.203H202.801V257.93H211.871ZM206.475 249.914H210.131V247.717H206.475V249.914ZM216.688 256.822L215.316 261.604H214.016L214.982 256.822H216.688ZM237.482 253.254V254.414H231.031V259.459H229.678V254.414H223.244V253.254H237.482ZM231.049 246.891C231.049 248.842 233.773 250.547 236.568 250.934L236.059 252.041C233.642 251.672 231.365 250.459 230.381 248.754C229.379 250.477 227.067 251.672 224.65 252.041L224.141 250.934C226.918 250.547 229.678 248.859 229.678 246.891V246.873H224.633V245.748H229.678V243.797H231.031V245.748H236.111V246.873H231.049V246.891ZM244.127 247.541C244.127 249.615 245.779 251.443 248.1 252.164L247.414 253.271C245.604 252.683 244.18 251.443 243.477 249.844C242.8 251.558 241.385 252.885 239.539 253.535L238.854 252.463C241.156 251.689 242.773 249.738 242.773 247.541V247.031H239.24V245.906H242.773V243.902H244.162V245.906H247.66V247.031H244.127V247.541ZM251.756 243.814V255.486H250.367V249.773H247.115V248.631H250.367V243.814H251.756ZM252.195 257.93V259.09H241.719V254.432H243.107V257.93H252.195ZM271.76 243.797V251.918H270.406V243.797H271.76ZM271.777 252.674V256.4H263.006V258.141H272.34V259.248H261.652V255.363H270.406V253.764H261.617V252.674H271.777ZM264.5 246.012C264.5 248.051 266.17 249.826 268.525 250.529L267.84 251.602C265.994 251.021 264.526 249.782 263.832 248.174C263.155 249.932 261.661 251.303 259.754 251.936L259.104 250.846C261.441 250.072 263.111 248.156 263.111 246.012V245.836H259.455V244.693H268.104V245.836H264.5V246.012ZM288.723 251.795V252.938H282.359V256.137H280.988V252.938H274.414V251.795H288.723ZM286.859 244.57V250.002H276.277V244.57H286.859ZM277.631 245.66V248.895H285.488V245.66H277.631ZM287.123 257.93V259.09H276.242V254.59H277.631V257.93H287.123ZM307.461 243.797V259.459H306.09V250.758H302.346V255.504H295.139V245.027H296.527V249.105H300.992V245.027H302.346V249.615H306.09V243.797H307.461ZM296.527 254.361H300.992V250.213H296.527V254.361ZM324.301 252.463V253.588H310.045V252.463H324.301ZM322.807 257.93V259.09H311.908V254.73H313.279V257.93H322.807ZM322.613 249.896V250.986H311.943V244.395H322.525V245.502H313.332V247.137H322.104V248.209H313.332V249.896H322.613ZM332.738 244.078C336.219 244.078 338.258 245.027 338.258 246.768C338.258 248.543 336.219 249.492 332.738 249.51C329.258 249.492 327.201 248.543 327.201 246.768C327.201 245.027 329.258 244.078 332.738 244.078ZM332.738 245.115C330.137 245.115 328.625 245.748 328.643 246.768C328.625 247.857 330.137 248.455 332.738 248.455C335.322 248.455 336.852 247.857 336.852 246.768C336.852 245.748 335.322 245.115 332.738 245.115ZM339.857 250.564V251.689H325.619V250.564H339.857ZM338.029 253.043V256.541H328.748V258.158H338.504V259.248H327.377V255.521H336.676V254.098H327.342V253.043H338.029ZM358.121 244.447V245.449C358.121 246.469 358.121 247.664 357.822 249.176L356.451 249.035C356.741 247.603 356.75 246.539 356.75 245.572H347.398V244.447H358.121ZM359.932 250.037V251.162H345.711V250.037H351.6V247.33H352.953V250.037H359.932ZM358.174 252.621V256.33H348.805V258.123H358.578V259.248H347.416V255.346H356.803V253.746H347.398V252.621H358.174ZM373.344 243.797V250.02H375.963V251.18H373.344V259.459H371.973V243.797H373.344ZM368.967 245.256V250.846H363.271V254.502C366.172 254.502 368.193 254.405 370.566 253.957L370.707 255.1C368.246 255.557 366.154 255.662 363.148 255.68H361.9V249.703H367.596V246.398H361.865V245.256H368.967ZM394.684 243.797V259.424H393.365V251.232H391.062V258.615H389.797V244.148H391.062V250.09H393.365V243.797H394.684ZM387.758 245.713V246.855H383.275V254.379C385.429 254.37 386.923 254.291 388.654 253.939L388.777 255.1C386.896 255.486 385.297 255.557 382.906 255.557H381.904V245.713H387.758ZM409.01 243.797V250.459H411.506V251.619H409.01V259.424H407.621V243.797H409.01ZM396.688 255.258C397.962 255.258 399.447 255.258 400.994 255.205V253.465C399.175 253.263 397.988 252.199 398.006 250.652C397.988 248.895 399.482 247.752 401.697 247.752C403.877 247.752 405.389 248.895 405.406 250.652C405.389 252.199 404.185 253.263 402.383 253.482V255.152C403.842 255.082 405.31 254.968 406.672 254.766L406.76 255.82C403.35 256.4 399.658 256.436 396.916 256.436L396.688 255.258ZM406.391 245.713V246.838H396.969V245.713H400.994V243.832H402.383V245.713H406.391ZM401.697 248.824C400.256 248.824 399.289 249.562 399.289 250.652C399.289 251.742 400.256 252.445 401.697 252.428C403.121 252.445 404.088 251.742 404.088 250.652C404.088 249.562 403.121 248.824 401.697 248.824ZM426.729 251.057V252.146H412.42V251.057H426.729ZM424.936 253.395V256.717H415.549V258.211H425.445V259.213H414.16V255.768H423.564V254.432H414.143V253.395H424.936ZM424.883 244.271V247.506H415.654V248.877H425.164V249.879H414.283V246.557H423.494V245.273H414.23V244.271H424.883ZM438.066 247.998C438.049 250.846 440 253.729 442.303 254.766L441.459 255.855C439.684 254.985 438.146 253.148 437.398 250.916C436.669 253.28 435.131 255.249 433.303 256.172L432.424 255.012C434.744 253.939 436.678 250.969 436.695 247.998V245.15H438.066V247.998ZM445.396 243.797V259.459H444.008V243.797H445.396ZM453.359 246.697C453.359 248.771 454.889 250.67 457.209 251.479L456.506 252.551C454.722 251.918 453.359 250.635 452.691 249.018C452.023 250.793 450.591 252.173 448.754 252.85L448.016 251.777C450.354 250.951 451.988 248.93 452.006 246.697V246.029H448.438V244.904H456.875V246.029H453.359V246.697ZM460.285 243.797V247.928H462.641V249.105H460.285V253.219H458.914V243.797H460.285ZM460.285 254.045V259.424H458.914V255.17H450.055V254.045H460.285ZM475.842 243.744V247.541H478.215V248.684H475.842V252.393H474.471V243.744H475.842ZM475.842 253.201V256.664H467.264V258.193H476.422V259.248H465.91V255.645H474.471V254.238H465.875V253.201H475.842ZM472.977 245.221V246.328H463.66V245.221H467.633V243.639H469.004V245.221H472.977ZM468.318 247.031C470.586 247.031 472.062 248.016 472.08 249.598C472.062 251.18 470.586 252.164 468.318 252.164C466.033 252.164 464.539 251.18 464.557 249.598C464.539 248.016 466.033 247.031 468.318 247.031ZM468.318 248.051C466.842 248.051 465.857 248.666 465.875 249.598C465.857 250.547 466.842 251.127 468.318 251.127C469.795 251.127 470.762 250.547 470.779 249.598C470.762 248.666 469.795 248.051 468.318 248.051ZM491.539 245.256C491.539 247.453 494.422 249.369 497.234 249.756L496.672 250.881C494.246 250.477 491.847 249.132 490.836 247.207C489.834 249.141 487.426 250.477 485 250.881L484.438 249.756C487.25 249.369 490.115 247.488 490.115 245.256V244.359H491.539V245.256ZM497.938 252.604V253.764H491.469V259.424H490.115V253.764H483.699V252.604H497.938ZM509.064 254.291C509.064 255.671 509.803 257.139 511.297 257.982C512.773 257.06 513.564 255.504 513.564 254.291V253.43H514.918V254.291C514.918 255.891 516.096 257.508 518.1 258.193L517.414 259.213C515.85 258.659 514.751 257.569 514.215 256.26C513.731 257.525 512.773 258.721 511.332 259.336C509.812 258.756 508.845 257.604 508.379 256.295C507.825 257.561 506.744 258.65 505.25 259.213L504.547 258.193C506.516 257.455 507.711 255.785 507.729 254.291V253.43H509.064V254.291ZM516.676 243.814V252.744H515.305V243.814H516.676ZM508.238 244.729C510.611 244.729 512.334 246.205 512.334 248.385C512.334 250.529 510.611 252.006 508.238 252.006C505.865 252.006 504.143 250.529 504.143 248.385C504.143 246.205 505.865 244.729 508.238 244.729ZM508.238 245.906C506.639 245.889 505.479 246.926 505.496 248.385C505.479 249.826 506.639 250.846 508.238 250.863C509.82 250.846 510.98 249.826 510.98 248.385C510.98 246.926 509.82 245.889 508.238 245.906ZM523.531 245.01C525.658 245.027 527.188 246.847 527.416 249.773H530.914V243.797H532.285V259.459H530.914V250.916H527.434C527.267 253.975 525.711 255.891 523.531 255.891C521.229 255.891 519.611 253.781 519.611 250.459C519.611 247.137 521.229 245.027 523.531 245.01ZM523.531 246.24C521.984 246.258 520.93 247.91 520.93 250.459C520.93 253.008 521.984 254.66 523.531 254.66C525.061 254.66 526.133 253.008 526.133 250.459C526.133 247.91 525.061 246.258 523.531 246.24ZM549.195 256.26V257.42H534.887V256.26H538.438V252.041C537.102 251.347 536.293 250.222 536.293 248.807C536.293 246.381 538.666 244.799 542.006 244.781C545.346 244.799 547.719 246.381 547.719 248.807C547.719 250.195 546.937 251.312 545.645 252.006V256.26H549.195ZM542.006 245.924C539.439 245.906 537.629 247.066 537.629 248.807C537.629 250.547 539.439 251.725 542.006 251.725C544.555 251.725 546.383 250.547 546.383 248.807C546.383 247.066 544.555 245.906 542.006 245.924ZM539.791 256.26H544.256V252.533C543.579 252.718 542.823 252.814 542.006 252.814C541.206 252.814 540.459 252.727 539.791 252.551V256.26ZM552.096 258.105C551.48 258.105 550.953 257.596 550.971 256.963C550.953 256.348 551.48 255.838 552.096 255.838C552.711 255.838 553.221 256.348 553.221 256.963C553.221 257.596 552.711 258.105 552.096 258.105Z" fill="white"/>
<path d="M97.5547 207.828V213.805H100.438V216.266H97.5547V223.109H94.5312V207.828H97.5547ZM91.7422 209.422C91.7422 215.188 88.1328 219.219 81.7344 221.023L80.4922 218.656C85.2617 217.32 87.9688 214.848 88.4609 211.859H81.4297V209.422H91.7422ZM98.2812 226.391V228.781H83.6797V221.539H86.7031V226.391H98.2812ZM118.297 207.828V213.641H121.18V216.102H118.297V223.25H115.297V207.828H118.297ZM111.828 209.539V211.93H105.195V217.32C109.051 217.297 111.172 217.18 113.562 216.664L113.867 219.055C111.195 219.617 108.734 219.734 104 219.734H102.195V209.539H111.828ZM119.07 226.391V228.781H104.469V221.609H107.445V226.391H119.07ZM147.172 224.211V226.672H127.648V224.211H135.875V219.852H129.711V209.398H144.992V219.852H138.852V224.211H147.172ZM132.664 211.789V217.508H142.039V211.789H132.664ZM165.781 217.695V220.086H150.688V209.609H165.617V212.023H153.641V217.695H165.781ZM167.914 224.094V226.555H148.391V224.094H167.914Z" fill="#543ED9"/>
<path d="M187.625 207.828V229.156H184.766V207.828H187.625ZM183.172 208.133V228.172H180.359V218.094H178.648C178.367 222.289 176.586 224.82 173.961 224.82C171.148 224.82 169.32 221.867 169.32 217.062C169.32 212.281 171.148 209.352 173.961 209.352C176.527 209.352 178.285 211.742 178.625 215.727H180.359V208.133H183.172ZM173.961 212.164C172.766 212.164 172.062 213.805 172.086 217.062C172.062 220.344 172.766 221.961 173.961 221.938C175.18 221.961 175.906 220.344 175.906 217.062C175.906 213.805 175.18 212.164 173.961 212.164ZM197.867 211.484C197.867 214.25 199.344 216.992 202.742 218.117L201.125 220.461C198.863 219.629 197.305 218.059 196.414 216.078C195.488 218.305 193.824 220.062 191.352 220.953L189.734 218.609C193.297 217.438 194.844 214.508 194.844 211.461V209.141H197.867V211.484ZM207.852 207.852V223.602H204.875V214.789H200.867V212.375H204.875V207.852H207.852ZM208.297 226.391V228.781H193.648V221.938H196.672V226.391H208.297ZM234.008 207.828V219.289H231.008V207.828H234.008ZM222.688 220.227V222.219H231.031V220.227H234.008V228.922H219.734V220.227H222.688ZM222.688 226.508H231.031V224.539H222.688V226.508ZM222.312 208.719C225.641 208.695 228.148 210.781 228.148 213.781C228.148 216.688 225.641 218.773 222.312 218.773C218.984 218.773 216.477 216.688 216.477 213.781C216.477 210.781 218.984 208.695 222.312 208.719ZM222.312 211.203C220.602 211.203 219.383 212.164 219.406 213.781C219.383 215.375 220.602 216.312 222.312 216.312C223.977 216.312 225.195 215.375 225.195 213.781C225.195 212.164 223.977 211.203 222.312 211.203ZM247.133 209.07V215.727H240.688V218C243.863 218 245.738 217.895 247.906 217.484L248.188 219.875C245.703 220.32 243.453 220.391 239.328 220.391H237.734V213.5H244.133V211.414H237.688V209.07H247.133ZM254.867 207.852V220.977H251.891V217.695H248.352V215.328H251.891V213.172H248.352V210.805H251.891V207.852H254.867ZM254.867 221.938V229.156H251.891V224.328H240.172V221.938H254.867ZM268.297 220.297V222.43H270.594V220.297H273.359V226.766C275.727 225.711 276.734 223.719 276.734 221.773V220.133H279.734V221.773C279.711 223.953 280.766 226.016 283.438 226.883L281.891 229.109C280.051 228.477 278.867 227.258 278.188 225.734C277.473 227.211 276.301 228.441 274.578 229.109L273.359 227.258V228.922H265.531V220.297H268.297ZM268.297 226.648H270.594V224.633H268.297V226.648ZM269.117 208.625C271.836 208.625 274.004 210.137 274.602 212.398H278.164V207.828H281.141V219.125H278.164V214.859H274.602C274.027 217.168 271.848 218.703 269.117 218.703C265.836 218.703 263.422 216.617 263.445 213.641C263.422 210.711 265.836 208.625 269.117 208.625ZM269.117 211.086C267.453 211.086 266.258 212.07 266.281 213.641C266.258 215.258 267.453 216.242 269.117 216.266C270.734 216.242 271.906 215.258 271.906 213.641C271.906 212.07 270.734 211.086 269.117 211.086ZM301.766 207.828V229.203H298.742V207.828H301.766ZM290.188 209.328C293.398 209.328 295.789 212.281 295.789 216.922C295.789 221.609 293.398 224.539 290.188 224.539C286.906 224.539 284.516 221.609 284.539 216.922C284.516 212.281 286.906 209.328 290.188 209.328ZM290.188 212.023C288.523 212.023 287.422 213.758 287.422 216.922C287.422 220.109 288.523 221.82 290.188 221.82C291.805 221.82 292.906 220.109 292.906 216.922C292.906 213.758 291.805 212.023 290.188 212.023ZM328.18 207.828V229.203H325.227V217.766H321.266V224.141H310.977V209.469H313.953V214.648H318.336V209.469H321.266V215.352H325.227V207.828H328.18ZM313.953 221.75H318.336V216.992H313.953V221.75ZM350.375 219.359V221.703H330.875V219.359H350.375ZM348.406 226.391V228.781H333.266V222.781H336.219V226.391H348.406ZM348.289 215.773V218.023H333.312V208.531H348.102V210.805H336.312V212.164H347.609V214.367H336.312V215.773H348.289ZM362.539 209.586V219.828H352.297V209.586H362.539ZM355.25 211.977V217.484H359.586V211.977H355.25ZM368.586 207.828V213.969H371.469V216.43H368.586V223.391H365.586V207.828H368.586ZM369.359 226.391V228.781H354.758V221.867H357.734V226.391H369.359ZM395.188 212.141V214.508H380.352V208.086H383.328V212.141H395.188ZM397.438 215.773V218.164H389.094V219.828H395.094V225.383H383.188V226.719H395.75V229.016H380.188V223.297H392.117V222.078H380.141V219.828H386.164V218.164H377.914V215.773H397.438ZM416.656 207.828V229.203H413.68V217.953H410.234V215.516H413.68V207.828H416.656ZM409.039 209.609V217.602H402.406V221.773C405.348 221.75 407.844 221.645 410.586 221.164L410.82 223.602C407.656 224.117 404.75 224.234 401.188 224.234H399.43V215.234H406.133V212.023H399.383V209.609H409.039ZM438.945 224.234V226.672H419.422V224.234H427.648V220.297H421.484V209.188H424.484V212.492H433.789V209.188H436.766V220.297H430.625V224.234H438.945ZM424.484 217.906H433.789V214.883H424.484V217.906ZM447.008 213.195C447.008 216.641 447.969 220.203 450.875 222.078L449.258 224.398C447.418 223.285 446.246 221.457 445.578 219.266C444.805 221.68 443.527 223.695 441.594 224.867L439.766 222.664C442.93 220.695 444.102 216.945 444.102 213.336V209.656H447.008V213.195ZM458.656 207.828V229.156H455.797V207.828H458.656ZM454.18 208.133V228.172H451.391V217.461H448.625V215.023H451.391V208.133H454.18ZM480.43 224.211V226.672H460.906V224.211H465.266V218.984C463.613 218 462.617 216.488 462.617 214.602C462.617 211.156 465.992 208.859 470.633 208.859C475.25 208.859 478.648 211.156 478.672 214.602C478.66 216.441 477.688 217.941 476.094 218.938V224.211H480.43ZM470.633 211.227C467.586 211.227 465.57 212.445 465.57 214.602C465.57 216.688 467.586 217.977 470.633 217.977C473.656 217.977 475.695 216.688 475.719 214.602C475.695 212.445 473.656 211.227 470.633 211.227ZM468.219 224.211H473.07V220.062C472.309 220.215 471.488 220.297 470.633 220.297C469.777 220.297 468.969 220.227 468.219 220.062V224.211ZM486.5 210.031L486.195 221.914H483.195L482.891 210.031H486.5ZM484.719 227.211C483.617 227.211 482.727 226.32 482.75 225.242C482.727 224.164 483.617 223.297 484.719 223.297C485.75 223.297 486.664 224.164 486.664 225.242C486.664 226.32 485.75 227.211 484.719 227.211Z" fill="white"/>
<g opacity="0.9">
<circle cx="28.5" cy="231.5" r="27.5" fill="url(#paint3_linear_1038_318)"/>
</g>
<path d="M21.1585 235.649V228.932M21.1585 228.932V220.793C21.1585 219.587 22.2098 218.701 23.4402 218.701C24.6735 218.701 25.6587 219.587 25.6587 220.793L25.7585 228.242M21.1585 228.932C19.1837 230.685 17.0224 232.714 16.7361 233.281C15.4058 235.268 15.5101 237.046 17.7771 240.086C18.8134 241.466 19.9021 242.806 21.041 244.102C22.2156 245.237 21.8985 246.773 21.8985 248.059M25.76 231.957V228.242C26.8113 227.006 29.6377 227.445 30.2309 229.97M30.2309 229.97L30.2602 230.13C30.2475 230.077 30.2377 230.024 30.2309 229.97ZM30.2309 229.97C30.5656 228.242 34.574 228.638 34.7605 231.735V233.418M30.2837 231.949V230.478C30.2837 230.361 30.2764 230.245 30.2617 230.13M36.1994 248.055V246.528C36.2566 244.728 37.7807 244.183 38.6866 242.215C39.6028 240.406 39.3253 235.811 39.3253 233.611C39.3649 233.089 39.0082 231.57 37.3549 230.996C36.8351 230.75 35.6664 230.394 34.6621 231.104" stroke="#4330B1" stroke-width="3" stroke-linecap="round" stroke-linejoin="round"/>
<rect x="22.3809" y="211" width="1.90477" height="4.76193" rx="0.952387" fill="#4330B1"/>
<rect x="29.3223" y="212.904" width="1.90477" height="4.76193" rx="0.952387" transform="rotate(35 29.3223 212.904)" fill="#4330B1"/>
<rect x="15.3594" y="214.559" width="1.90477" height="4.76193" rx="0.952387" transform="rotate(-35 15.3594 214.559)" fill="#4330B1"/>
<path d="M16.666 144.765V150.471C16.666 153.56 16.666 155.105 17.0343 156.365C17.9127 159.365 20.2593 161.725 23.2593 162.775C24.2593 163.068 25.2527 163.38 27.166 163.661C28.2828 163.821 29.4188 163.784 30.5227 163.551C31.0277 163.448 31.4393 163.36 31.786 163.285C32.6027 163.108 33.4193 162.896 34.1693 162.528C35.016 162.115 35.6744 161.685 36.6277 160.973C37.1977 160.548 37.7193 160.03 38.761 158.993L44.1727 153.61C44.4347 153.349 44.6427 153.04 44.7846 152.699C44.9265 152.358 44.9996 151.992 44.9996 151.623C44.9996 151.254 44.9265 150.888 44.7846 150.547C44.6427 150.206 44.4347 149.897 44.1727 149.636C43.6419 149.109 42.9241 148.813 42.176 148.813C41.4279 148.813 40.7101 149.109 40.1793 149.636L36.4293 153.368V144.765" stroke="#5343B9" stroke-width="3" stroke-linecap="round" stroke-linejoin="round"/>
<path d="M31.4877 141.087V137.917C31.4877 136.558 32.5943 135.458 33.9593 135.458C35.3227 135.458 36.4293 136.558 36.4293 137.917V145.29M26.5477 144.758V134.583C26.5477 133.225 27.6543 132.125 29.0177 132.125C30.3827 132.125 31.4877 133.225 31.4877 134.583V144.765M21.606 140.2V144.765V136.258C21.6227 135.614 21.8904 135.002 22.352 134.552C22.8135 134.103 23.4324 133.851 24.0768 133.851C24.7213 133.851 25.3402 134.103 25.8017 134.552C26.2633 135.002 26.5309 135.614 26.5477 136.258V144.765M21.606 142.757V141.25C21.606 139.892 20.501 138.792 19.136 138.792C17.7727 138.792 16.666 139.892 16.666 141.25V145.813" stroke="#5343B9" stroke-width="3" stroke-linecap="round" stroke-linejoin="round"/>
<path fill-rule="evenodd" clip-rule="evenodd" d="M35.4606 418.152C35.3093 418.278 35.1345 418.373 34.9464 418.432C34.7582 418.491 34.5604 418.512 34.3641 418.494C34.1678 418.476 33.977 418.42 33.8025 418.328C33.628 418.236 33.4732 418.111 33.3471 417.96L28.3476 411.96C28.2159 411.809 28.1157 411.634 28.0527 411.444C27.9898 411.254 27.9655 411.054 27.9812 410.854C27.9969 410.655 28.0524 410.461 28.1442 410.283C28.2361 410.105 28.3626 409.948 28.5163 409.82C28.6699 409.692 28.8477 409.596 29.039 409.537C29.2303 409.479 29.4313 409.46 29.6303 409.48C29.8292 409.501 30.0221 409.561 30.1975 409.657C30.3729 409.753 30.5273 409.883 30.6516 410.04L35.6526 416.04C35.9071 416.345 36.0298 416.74 35.9938 417.136C35.9578 417.532 35.766 417.897 35.4606 418.152Z" fill="#5242B9"/>
<path fill-rule="evenodd" clip-rule="evenodd" d="M35.4606 403.848C35.766 404.102 35.9578 404.468 35.9938 404.864C36.0298 405.26 35.9071 405.654 35.6526 405.96L30.6516 411.96C30.5273 412.116 30.3729 412.247 30.1975 412.343C30.0221 412.439 29.8292 412.499 29.6303 412.519C29.4313 412.54 29.2303 412.52 29.039 412.462C28.8477 412.404 28.6699 412.308 28.5163 412.18C28.3626 412.052 28.2361 411.894 28.1442 411.716C28.0524 411.539 27.9969 411.345 27.9812 411.145C27.9655 410.946 27.9898 410.745 28.0527 410.555C28.1157 410.366 28.2159 410.19 28.3476 410.04L33.3471 404.04C33.4732 403.888 33.628 403.763 33.8025 403.672C33.977 403.58 34.1678 403.524 34.3641 403.506C34.5604 403.488 34.7582 403.509 34.9464 403.568C35.1345 403.626 35.3093 403.721 35.4606 403.848Z" fill="#5242B9"/>
<path fill-rule="evenodd" clip-rule="evenodd" d="M31 411C31 410.602 31.158 410.221 31.4393 409.939C31.7206 409.658 32.1022 409.5 32.5 409.5H44.5C44.8978 409.5 45.2794 409.658 45.5607 409.939C45.842 410.221 46 410.602 46 411C46 411.398 45.842 411.779 45.5607 412.061C45.2794 412.342 44.8978 412.5 44.5 412.5H32.5C32.1022 412.5 31.7206 412.342 31.4393 412.061C31.158 411.779 31 411.398 31 411Z" fill="#5242B9"/>
<path fill-rule="evenodd" clip-rule="evenodd" d="M23.5394 392.848C23.6907 392.722 23.8655 392.627 24.0536 392.568C24.2418 392.509 24.4396 392.488 24.6359 392.506C24.8322 392.524 25.023 392.58 25.1975 392.672C25.372 392.764 25.5268 392.889 25.6529 393.04L30.6524 399.04C30.7841 399.191 30.8843 399.366 30.9473 399.556C31.0102 399.746 31.0345 399.946 31.0188 400.146C31.0031 400.345 30.9476 400.539 30.8558 400.717C30.7639 400.895 30.6374 401.052 30.4837 401.18C30.3301 401.308 30.1523 401.404 29.961 401.463C29.7697 401.521 29.5687 401.54 29.3697 401.52C29.1708 401.499 28.9779 401.439 28.8025 401.343C28.6271 401.247 28.4727 401.117 28.3484 400.96L23.3474 394.96C23.0929 394.655 22.9702 394.26 23.0062 393.864C23.0422 393.468 23.234 393.103 23.5394 392.848Z" fill="#5242B9"/>
<path fill-rule="evenodd" clip-rule="evenodd" d="M23.5394 407.152C23.234 406.898 23.0422 406.532 23.0062 406.136C22.9702 405.74 23.0929 405.346 23.3474 405.04L28.3484 399.04C28.4727 398.884 28.6271 398.753 28.8025 398.657C28.9779 398.561 29.1708 398.501 29.3697 398.481C29.5687 398.46 29.7697 398.48 29.961 398.538C30.1523 398.596 30.3301 398.692 30.4837 398.82C30.6374 398.948 30.7639 399.106 30.8558 399.284C30.9476 399.461 31.0031 399.655 31.0188 399.855C31.0345 400.054 31.0102 400.255 30.9473 400.445C30.8843 400.634 30.7841 400.81 30.6524 400.96L25.6529 406.96C25.5268 407.112 25.372 407.237 25.1975 407.328C25.023 407.42 24.8322 407.476 24.6359 407.494C24.4396 407.512 24.2418 407.491 24.0536 407.432C23.8655 407.374 23.6907 407.279 23.5394 407.152Z" fill="#5242B9"/>
<path fill-rule="evenodd" clip-rule="evenodd" d="M28 400C28 400.398 27.842 400.779 27.5607 401.061C27.2794 401.342 26.8978 401.5 26.5 401.5H14.5C14.1022 401.5 13.7206 401.342 13.4393 401.061C13.158 400.779 13 400.398 13 400C13 399.602 13.158 399.221 13.4393 398.939C13.7206 398.658 14.1022 398.5 14.5 398.5H26.5C26.8978 398.5 27.2794 398.658 27.5607 398.939C27.842 399.221 28 399.602 28 400Z" fill="#5242B9"/>
<defs>
<filter id="filter0_d_1038_318" x="0.560547" y="12.4004" width="385.752" height="58.3672" filterUnits="userSpaceOnUse" color-interpolation-filters="sRGB">
<feFlood flood-opacity="0" result="BackgroundImageFix"/>
<feColorMatrix in="SourceAlpha" type="matrix" values="0 0 0 0 0 0 0 0 0 0 0 0 0 0 0 0 0 0 127 0" result="hardAlpha"/>
<feOffset dy="4"/>
<feGaussianBlur stdDeviation="2"/>
<feComposite in2="hardAlpha" operator="out"/>
<feColorMatrix type="matrix" values="0 0 0 0 0 0 0 0 0 0 0 0 0 0 0 0 0 0 0.25 0"/>
<feBlend mode="normal" in2="BackgroundImageFix" result="effect1_dropShadow_1038_318"/>
<feBlend mode="normal" in="SourceGraphic" in2="effect1_dropShadow_1038_318" result="shape"/>
</filter>
<linearGradient id="paint0_linear_1038_318" x1="62.4706" y1="117.843" x2="4.23529" y2="172.843" gradientUnits="userSpaceOnUse">
<stop stop-color="white"/>
<stop offset="1" stop-color="#CEDEFF"/>
</linearGradient>
<linearGradient id="paint1_linear_1038_318" x1="63.4706" y1="287.843" x2="5.23529" y2="342.843" gradientUnits="userSpaceOnUse">
<stop stop-color="white"/>
<stop offset="1" stop-color="#CEDEFF"/>
</linearGradient>
<linearGradient id="paint2_linear_1038_318" x1="63.4706" y1="375.843" x2="5.23529" y2="430.843" gradientUnits="userSpaceOnUse">
<stop stop-color="white"/>
<stop offset="1" stop-color="#CEDEFF"/>
</linearGradient>
<linearGradient id="paint3_linear_1038_318" x1="62.4706" y1="201.843" x2="4.23529" y2="256.843" gradientUnits="userSpaceOnUse">
<stop stop-color="white"/>
<stop offset="1" stop-color="#CEDEFF"/>
</linearGradient>
</defs>
</svg>
